<?xml version="1.0" encoding="utf-8" standalone="no"?>
<!DOCTYPE svg PUBLIC "-//W3C//DTD SVG 1.1//EN"
  "http://www.w3.org/Graphics/SVG/1.1/DTD/svg11.dtd">
<svg xmlns:xlink="http://www.w3.org/1999/xlink" width="648pt" height="360pt" viewBox="0 0 648 360" xmlns="http://www.w3.org/2000/svg" version="1.1">
 <metadata>
  <rdf:RDF xmlns:dc="http://purl.org/dc/elements/1.1/" xmlns:cc="http://creativecommons.org/ns#" xmlns:rdf="http://www.w3.org/1999/02/22-rdf-syntax-ns#">
   <cc:Work>
    <dc:type rdf:resource="http://purl.org/dc/dcmitype/StillImage"/>
    <dc:date>2026-10-09T20:14:19.097336</dc:date>
    <dc:format>image/svg+xml</dc:format>
    <dc:creator>
     <cc:Agent>
      <dc:title>Matplotlib v3.11.2, https://matplotlib.org/</dc:title>
     </cc:Agent>
    </dc:creator>
   </cc:Work>
  </rdf:RDF>
 </metadata>
 <defs>
  <style type="text/css">*{stroke-linejoin: round; stroke-linecap: butt}</style>
 </defs>
 <g id="figure_1">
  <g id="patch_1">
   <path d="M 0 360 
L 648 360 
L 648 0 
L 0 0 
z
" style="fill: #ffffff"/>
  </g>
  <g id="axes_1">
   <g id="patch_2">
    <path d="M 71.002344 317.877656 
L 617.76 317.877656 
L 617.76 26.16 
L 71.002344 26.16 
z
" style="fill: #ffffff"/>
   </g>
   <g id="matplotlib.axis_1">
    <g id="xtick_1">
     <g id="line2d_1">
      <defs>
       <path id="m95b015d5ce" d="M 0 0 
L 0 3.5 
" style="stroke: #000000; stroke-width: 0.8"/>
      </defs>
      <g>
       <use xlink:href="#m95b015d5ce" x="71.002344" y="317.877656" style="stroke: #000000; stroke-width: 0.8"/>
      </g>
     </g>
     <g id="text_1">
      <text style="font-size: 10px; font-family: 'DejaVu Sans', 'Bitstream Vera Sans', 'Computer Modern Sans Serif', 'Lucida Grande', 'Verdana', 'Geneva', 'Lucid', 'Arial', 'Helvetica', 'Avant Garde', sans-serif; text-anchor: middle" x="71.002344" y="332.475312" transform="rotate(-0 71.002344 332.475312)">0</text>
     </g>
    </g>
    <g id="xtick_2">
     <g id="line2d_2">
      <g>
       <use xlink:href="#m95b015d5ce" x="125.678109" y="317.877656" style="stroke: #000000; stroke-width: 0.8"/>
      </g>
     </g>
     <g id="text_2">
      <text style="font-size: 10px; font-family: 'DejaVu Sans', 'Bitstream Vera Sans', 'Computer Modern Sans Serif', 'Lucida Grande', 'Verdana', 'Geneva', 'Lucid', 'Arial', 'Helvetica', 'Avant Garde', sans-serif; text-anchor: middle" x="125.678109" y="332.475312" transform="rotate(-0 125.678109 332.475312)">50000</text>
     </g>
    </g>
    <g id="xtick_3">
     <g id="line2d_3">
      <g>
       <use xlink:href="#m95b015d5ce" x="180.353875" y="317.877656" style="stroke: #000000; stroke-width: 0.8"/>
      </g>
     </g>
     <g id="text_3">
      <text style="font-size: 10px; font-family: 'DejaVu Sans', 'Bitstream Vera Sans', 'Computer Modern Sans Serif', 'Lucida Grande', 'Verdana', 'Geneva', 'Lucid', 'Arial', 'Helvetica', 'Avant Garde', sans-serif; text-anchor: middle" x="180.353875" y="332.475312" transform="rotate(-0 180.353875 332.475312)">100000</text>
     </g>
    </g>
    <g id="xtick_4">
     <g id="line2d_4">
      <g>
       <use xlink:href="#m95b015d5ce" x="235.029641" y="317.877656" style="stroke: #000000; stroke-width: 0.8"/>
      </g>
     </g>
     <g id="text_4">
      <text style="font-size: 10px; font-family: 'DejaVu Sans', 'Bitstream Vera Sans', 'Computer Modern Sans Serif', 'Lucida Grande', 'Verdana', 'Geneva', 'Lucid', 'Arial', 'Helvetica', 'Avant Garde', sans-serif; text-anchor: middle" x="235.029641" y="332.475312" transform="rotate(-0 235.029641 332.475312)">150000</text>
     </g>
    </g>
    <g id="xtick_5">
     <g id="line2d_5">
      <g>
       <use xlink:href="#m95b015d5ce" x="289.705406" y="317.877656" style="stroke: #000000; stroke-width: 0.8"/>
      </g>
     </g>
     <g id="text_5">
      <text style="font-size: 10px; font-family: 'DejaVu Sans', 'Bitstream Vera Sans', 'Computer Modern Sans Serif', 'Lucida Grande', 'Verdana', 'Geneva', 'Lucid', 'Arial', 'Helvetica', 'Avant Garde', sans-serif; text-anchor: middle" x="289.705406" y="332.475312" transform="rotate(-0 289.705406 332.475312)">200000</text>
     </g>
    </g>
    <g id="xtick_6">
     <g id="line2d_6">
      <g>
       <use xlink:href="#m95b015d5ce" x="344.381172" y="317.877656" style="stroke: #000000; stroke-width: 0.8"/>
      </g>
     </g>
     <g id="text_6">
      <text style="font-size: 10px; font-family: 'DejaVu Sans', 'Bitstream Vera Sans', 'Computer Modern Sans Serif', 'Lucida Grande', 'Verdana', 'Geneva', 'Lucid', 'Arial', 'Helvetica', 'Avant Garde', sans-serif; text-anchor: middle" x="344.381172" y="332.475312" transform="rotate(-0 344.381172 332.475312)">250000</text>
     </g>
    </g>
    <g id="xtick_7">
     <g id="line2d_7">
      <g>
       <use xlink:href="#m95b015d5ce" x="399.056937" y="317.877656" style="stroke: #000000; stroke-width: 0.8"/>
      </g>
     </g>
     <g id="text_7">
      <text style="font-size: 10px; font-family: 'DejaVu Sans', 'Bitstream Vera Sans', 'Computer Modern Sans Serif', 'Lucida Grande', 'Verdana', 'Geneva', 'Lucid', 'Arial', 'Helvetica', 'Avant Garde', sans-serif; text-anchor: middle" x="399.056937" y="332.475312" transform="rotate(-0 399.056937 332.475312)">300000</text>
     </g>
    </g>
    <g id="xtick_8">
     <g id="line2d_8">
      <g>
       <use xlink:href="#m95b015d5ce" x="453.732703" y="317.877656" style="stroke: #000000; stroke-width: 0.8"/>
      </g>
     </g>
     <g id="text_8">
      <text style="font-size: 10px; font-family: 'DejaVu Sans', 'Bitstream Vera Sans', 'Computer Modern Sans Serif', 'Lucida Grande', 'Verdana', 'Geneva', 'Lucid', 'Arial', 'Helvetica', 'Avant Garde', sans-serif; text-anchor: middle" x="453.732703" y="332.475312" transform="rotate(-0 453.732703 332.475312)">350000</text>
     </g>
    </g>
    <g id="xtick_9">
     <g id="line2d_9">
      <g>
       <use xlink:href="#m95b015d5ce" x="508.408469" y="317.877656" style="stroke: #000000; stroke-width: 0.8"/>
      </g>
     </g>
     <g id="text_9">
      <text style="font-size: 10px; font-family: 'DejaVu Sans', 'Bitstream Vera Sans', 'Computer Modern Sans Serif', 'Lucida Grande', 'Verdana', 'Geneva', 'Lucid', 'Arial', 'Helvetica', 'Avant Garde', sans-serif; text-anchor: middle" x="508.408469" y="332.475312" transform="rotate(-0 508.408469 332.475312)">400000</text>
     </g>
    </g>
    <g id="xtick_10">
     <g id="line2d_10">
      <g>
       <use xlink:href="#m95b015d5ce" x="563.084234" y="317.877656" style="stroke: #000000; stroke-width: 0.8"/>
      </g>
     </g>
     <g id="text_10">
      <text style="font-size: 10px; font-family: 'DejaVu Sans', 'Bitstream Vera Sans', 'Computer Modern Sans Serif', 'Lucida Grande', 'Verdana', 'Geneva', 'Lucid', 'Arial', 'Helvetica', 'Avant Garde', sans-serif; text-anchor: middle" x="563.084234" y="332.475312" transform="rotate(-0 563.084234 332.475312)">450000</text>
     </g>
    </g>
    <g id="xtick_11">
     <g id="line2d_11">
      <g>
       <use xlink:href="#m95b015d5ce" x="617.76" y="317.877656" style="stroke: #000000; stroke-width: 0.8"/>
      </g>
     </g>
     <g id="text_11">
      <text style="font-size: 10px; font-family: 'DejaVu Sans', 'Bitstream Vera Sans', 'Computer Modern Sans Serif', 'Lucida Grande', 'Verdana', 'Geneva', 'Lucid', 'Arial', 'Helvetica', 'Avant Garde', sans-serif; text-anchor: middle" x="617.76" y="332.475312" transform="rotate(-0 617.76 332.475312)">500000</text>
     </g>
    </g>
    <g id="text_12">
     <text style="font-size: 10px; font-family: 'DejaVu Sans', 'Bitstream Vera Sans', 'Computer Modern Sans Serif', 'Lucida Grande', 'Verdana', 'Geneva', 'Lucid', 'Arial', 'Helvetica', 'Avant Garde', sans-serif; text-anchor: middle" x="344.381172" y="346.476094" transform="rotate(-0 344.381172 346.476094)">Partida</text>
    </g>
   </g>
   <g id="matplotlib.axis_2">
    <g id="ytick_1">
     <g id="line2d_12">
      <path d="M 71.002344 317.877656 
L 617.76 317.877656 
" clip-path="url(#pbcfaf71966)" style="fill: none; stroke: #b0b0b0; stroke-opacity: 0.2; stroke-width: 0.8; stroke-linecap: square"/>
     </g>
     <g id="line2d_13">
      <defs>
       <path id="mf2bcfeef61" d="M 0 0 
L -3.5 0 
" style="stroke: #000000; stroke-width: 0.8"/>
      </defs>
      <g>
       <use xlink:href="#mf2bcfeef61" x="71.002344" y="317.877656" style="stroke: #000000; stroke-width: 0.8"/>
      </g>
     </g>
     <g id="text_13">
      <text style="font-size: 10px; font-family: 'DejaVu Sans', 'Bitstream Vera Sans', 'Computer Modern Sans Serif', 'Lucida Grande', 'Verdana', 'Geneva', 'Lucid', 'Arial', 'Helvetica', 'Avant Garde', sans-serif; text-anchor: end" x="64.002344" y="321.676484" transform="rotate(-0 64.002344 321.676484)">0</text>
     </g>
    </g>
    <g id="ytick_2">
     <g id="line2d_14">
      <path d="M 71.002344 280.200566 
L 617.76 280.200566 
" clip-path="url(#pbcfaf71966)" style="fill: none; stroke: #b0b0b0; stroke-opacity: 0.2; stroke-width: 0.8; stroke-linecap: square"/>
     </g>
     <g id="line2d_15">
      <g>
       <use xlink:href="#mf2bcfeef61" x="71.002344" y="280.200566" style="stroke: #000000; stroke-width: 0.8"/>
      </g>
     </g>
     <g id="text_14">
      <text style="font-size: 10px; font-family: 'DejaVu Sans', 'Bitstream Vera Sans', 'Computer Modern Sans Serif', 'Lucida Grande', 'Verdana', 'Geneva', 'Lucid', 'Arial', 'Helvetica', 'Avant Garde', sans-serif; text-anchor: end" x="64.002344" y="283.999395" transform="rotate(-0 64.002344 283.999395)">50000</text>
     </g>
    </g>
    <g id="ytick_3">
     <g id="line2d_16">
      <path d="M 71.002344 242.523477 
L 617.76 242.523477 
" clip-path="url(#pbcfaf71966)" style="fill: none; stroke: #b0b0b0; stroke-opacity: 0.2; stroke-width: 0.8; stroke-linecap: square"/>
     </g>
     <g id="line2d_17">
      <g>
       <use xlink:href="#mf2bcfeef61" x="71.002344" y="242.523477" style="stroke: #000000; stroke-width: 0.8"/>
      </g>
     </g>
     <g id="text_15">
      <text style="font-size: 10px; font-family: 'DejaVu Sans', 'Bitstream Vera Sans', 'Computer Modern Sans Serif', 'Lucida Grande', 'Verdana', 'Geneva', 'Lucid', 'Arial', 'Helvetica', 'Avant Garde', sans-serif; text-anchor: end" x="64.002344" y="246.322305" transform="rotate(-0 64.002344 246.322305)">100000</text>
     </g>
    </g>
    <g id="ytick_4">
     <g id="line2d_18">
      <path d="M 71.002344 204.846387 
L 617.76 204.846387 
" clip-path="url(#pbcfaf71966)" style="fill: none; stroke: #b0b0b0; stroke-opacity: 0.2; stroke-width: 0.8; stroke-linecap: square"/>
     </g>
     <g id="line2d_19">
      <g>
       <use xlink:href="#mf2bcfeef61" x="71.002344" y="204.846387" style="stroke: #000000; stroke-width: 0.8"/>
      </g>
     </g>
     <g id="text_16">
      <text style="font-size: 10px; font-family: 'DejaVu Sans', 'Bitstream Vera Sans', 'Computer Modern Sans Serif', 'Lucida Grande', 'Verdana', 'Geneva', 'Lucid', 'Arial', 'Helvetica', 'Avant Garde', sans-serif; text-anchor: end" x="64.002344" y="208.645215" transform="rotate(-0 64.002344 208.645215)">150000</text>
     </g>
    </g>
    <g id="ytick_5">
     <g id="line2d_20">
      <path d="M 71.002344 167.169297 
L 617.76 167.169297 
" clip-path="url(#pbcfaf71966)" style="fill: none; stroke: #b0b0b0; stroke-opacity: 0.2; stroke-width: 0.8; stroke-linecap: square"/>
     </g>
     <g id="line2d_21">
      <g>
       <use xlink:href="#mf2bcfeef61" x="71.002344" y="167.169297" style="stroke: #000000; stroke-width: 0.8"/>
      </g>
     </g>
     <g id="text_17">
      <text style="font-size: 10px; font-family: 'DejaVu Sans', 'Bitstream Vera Sans', 'Computer Modern Sans Serif', 'Lucida Grande', 'Verdana', 'Geneva', 'Lucid', 'Arial', 'Helvetica', 'Avant Garde', sans-serif; text-anchor: end" x="64.002344" y="170.968125" transform="rotate(-0 64.002344 170.968125)">200000</text>
     </g>
    </g>
    <g id="ytick_6">
     <g id="line2d_22">
      <path d="M 71.002344 129.492207 
L 617.76 129.492207 
" clip-path="url(#pbcfaf71966)" style="fill: none; stroke: #b0b0b0; stroke-opacity: 0.2; stroke-width: 0.8; stroke-linecap: square"/>
     </g>
     <g id="line2d_23">
      <g>
       <use xlink:href="#mf2bcfeef61" x="71.002344" y="129.492207" style="stroke: #000000; stroke-width: 0.8"/>
      </g>
     </g>
     <g id="text_18">
      <text style="font-size: 10px; font-family: 'DejaVu Sans', 'Bitstream Vera Sans', 'Computer Modern Sans Serif', 'Lucida Grande', 'Verdana', 'Geneva', 'Lucid', 'Arial', 'Helvetica', 'Avant Garde', sans-serif; text-anchor: end" x="64.002344" y="133.291035" transform="rotate(-0 64.002344 133.291035)">250000</text>
     </g>
    </g>
    <g id="ytick_7">
     <g id="line2d_24">
      <path d="M 71.002344 91.815117 
L 617.76 91.815117 
" clip-path="url(#pbcfaf71966)" style="fill: none; stroke: #b0b0b0; stroke-opacity: 0.2; stroke-width: 0.8; stroke-linecap: square"/>
     </g>
     <g id="line2d_25">
      <g>
       <use xlink:href="#mf2bcfeef61" x="71.002344" y="91.815117" style="stroke: #000000; stroke-width: 0.8"/>
      </g>
     </g>
     <g id="text_19">
      <text style="font-size: 10px; font-family: 'DejaVu Sans', 'Bitstream Vera Sans', 'Computer Modern Sans Serif', 'Lucida Grande', 'Verdana', 'Geneva', 'Lucid', 'Arial', 'Helvetica', 'Avant Garde', sans-serif; text-anchor: end" x="64.002344" y="95.613945" transform="rotate(-0 64.002344 95.613945)">300000</text>
     </g>
    </g>
    <g id="ytick_8">
     <g id="line2d_26">
      <path d="M 71.002344 54.138027 
L 617.76 54.138027 
" clip-path="url(#pbcfaf71966)" style="fill: none; stroke: #b0b0b0; stroke-opacity: 0.2; stroke-width: 0.8; stroke-linecap: square"/>
     </g>
     <g id="line2d_27">
      <g>
       <use xlink:href="#mf2bcfeef61" x="71.002344" y="54.138027" style="stroke: #000000; stroke-width: 0.8"/>
      </g>
     </g>
     <g id="text_20">
      <text style="font-size: 10px; font-family: 'DejaVu Sans', 'Bitstream Vera Sans', 'Computer Modern Sans Serif', 'Lucida Grande', 'Verdana', 'Geneva', 'Lucid', 'Arial', 'Helvetica', 'Avant Garde', sans-serif; text-anchor: end" x="64.002344" y="57.936855" transform="rotate(-0 64.002344 57.936855)">350000</text>
     </g>
    </g>
    <g id="text_21">
     <text style="font-size: 10px; font-family: 'DejaVu Sans', 'Bitstream Vera Sans', 'Computer Modern Sans Serif', 'Lucida Grande', 'Verdana', 'Geneva', 'Lucid', 'Arial', 'Helvetica', 'Avant Garde', sans-serif; text-anchor: middle" x="19.425" y="172.018828" transform="rotate(-90 19.425 172.018828)">Contagem cumulativa</text>
    </g>
   </g>
   <g id="line2d_28">
    <path d="M 71.002344 317.877656 
L 71.703287 317.52952 
L 71.932925 317.418749 
L 72.526704 317.14446 
L 72.754155 317.033689 
L 73.439789 316.696103 
L 73.662867 316.585332 
L 74.42286 316.196505 
L 74.652498 316.085734 
L 75.413585 315.696153 
L 75.611511 315.585382 
L 76.411964 315.168673 
L 76.630667 315.057903 
L 77.364416 314.68716 
L 77.580932 314.57639 
L 78.323429 314.199619 
L 78.560722 314.088848 
L 79.289003 313.721873 
L 79.507706 313.611103 
L 80.232707 313.246388 
L 80.445942 313.135618 
L 81.121734 312.804813 
L 81.345905 312.694042 
L 82.074186 312.327067 
L 82.291796 312.216297 
L 82.997113 311.865146 
L 83.222377 311.754376 
L 83.974716 311.370823 
L 84.180297 311.260052 
L 84.933729 310.875746 
L 85.171022 310.764975 
L 85.925547 310.379915 
L 86.163934 310.269145 
L 86.890028 309.903677 
L 87.10217 309.792906 
L 87.840293 309.41915 
L 88.06665 309.308379 
L 88.763219 308.963257 
L 88.979735 308.852486 
L 89.738635 308.464412 
L 89.951871 308.353641 
L 90.6889 307.980638 
L 90.893387 307.869868 
L 91.706963 307.444117 
L 91.935507 307.333346 
L 92.777514 306.888003 
L 93.001685 306.777232 
L 93.772613 306.380869 
L 94.001158 306.270098 
L 94.722878 305.907645 
L 94.963451 305.796874 
L 95.738754 305.397497 
L 95.945428 305.286726 
L 96.672616 304.920505 
L 96.895693 304.809734 
L 97.666621 304.413371 
L 97.88095 304.302601 
L 98.642037 303.91302 
L 98.871675 303.802249 
L 99.586834 303.444317 
L 99.778199 303.333546 
L 100.483517 302.982396 
L 100.697846 302.871625 
L 101.334271 302.567948 
L 101.544226 302.457177 
L 102.232048 302.118083 
L 102.461686 302.007312 
L 103.233708 301.610196 
L 103.444756 301.499425 
L 104.136951 301.157317 
L 104.334878 301.046547 
L 105.066439 300.677311 
L 105.287329 300.566541 
L 106.051697 300.174699 
L 106.293363 300.063928 
L 106.964782 299.736137 
L 107.186765 299.625367 
L 107.936917 299.243321 
L 108.163275 299.132551 
L 108.890462 298.766329 
L 109.110259 298.655559 
L 109.885561 298.256181 
L 110.094423 298.145411 
L 110.745064 297.831937 
L 110.968141 297.721167 
L 111.709545 297.345149 
L 111.940277 297.234379 
L 112.645594 296.883228 
L 112.86539 296.772458 
L 113.608981 296.394933 
L 113.852835 296.284163 
L 114.629231 295.884032 
L 114.854495 295.773261 
L 115.692128 295.330932 
L 115.911924 295.220161 
L 116.704723 294.808728 
L 116.913584 294.697957 
L 117.685606 294.300841 
L 117.885719 294.19007 
L 118.608533 293.826863 
L 118.811927 293.716092 
L 119.45382 293.408647 
L 119.661588 293.297876 
L 120.422675 292.908295 
L 120.645752 292.797525 
L 121.390436 292.419247 
L 121.631009 292.308476 
L 122.446772 291.881218 
L 122.666568 291.770447 
L 123.328145 291.449438 
L 123.537006 291.338668 
L 124.356049 290.909149 
L 124.582407 290.798378 
L 125.268041 290.460792 
L 125.486744 290.350021 
L 126.189875 290.000377 
L 126.4217 289.889607 
L 127.172945 289.506808 
L 127.388367 289.396037 
L 128.12321 289.024541 
L 128.32551 288.91377 
L 129.052698 288.547549 
L 129.265933 288.436778 
L 129.990934 288.072064 
L 130.211824 287.961293 
L 130.948853 287.58829 
L 131.159902 287.47752 
L 131.898024 287.103763 
L 132.110166 286.992992 
L 132.840635 286.62451 
L 133.051683 286.51374 
L 133.778871 286.147518 
L 133.999761 286.036748 
L 134.781624 285.632849 
L 135.001421 285.522079 
L 135.708925 285.169421 
L 135.935283 285.05865 
L 136.643881 284.705239 
L 136.857116 284.594469 
L 137.636793 284.192077 
L 137.851122 284.081307 
L 138.625331 283.682683 
L 138.863717 283.571912 
L 139.577783 283.214734 
L 139.792112 283.103963 
L 140.588191 282.690268 
L 140.812361 282.579498 
L 141.516585 282.229101 
L 141.718885 282.11833 
L 142.473411 281.73327 
L 142.699769 281.6225 
L 143.434611 281.251004 
L 143.658782 281.140233 
L 144.431897 280.742363 
L 144.660442 280.631592 
L 145.387629 280.265371 
L 145.609613 280.1546 
L 146.338988 279.786872 
L 146.557691 279.676101 
L 147.256447 279.329472 
L 147.462028 279.218701 
L 148.199057 278.845698 
L 148.415573 278.734928 
L 149.127452 278.379256 
L 149.348342 278.268485 
L 150.107241 277.880411 
L 150.316103 277.769641 
L 151.054226 277.395884 
L 151.268555 277.285113 
L 152.088691 276.854841 
L 152.332545 276.74407 
L 153.046611 276.386891 
L 153.267501 276.276121 
L 154.025307 275.8888 
L 154.252758 275.77803 
L 154.990881 275.404273 
L 155.204116 275.293502 
L 155.876628 274.964958 
L 156.105173 274.854187 
L 156.801742 274.509065 
L 157.029193 274.398295 
L 157.697331 274.072765 
L 157.91166 273.961994 
L 158.660718 273.580702 
L 158.879421 273.469931 
L 159.589113 273.115766 
L 159.810003 273.004996 
L 160.491263 272.670423 
L 160.706685 272.559653 
L 161.453556 272.179868 
L 161.662418 272.069097 
L 162.413663 271.686298 
L 162.617057 271.575527 
L 163.274259 271.257532 
L 163.482027 271.146762 
L 164.217963 270.774512 
L 164.438853 270.663741 
L 165.071999 270.362325 
L 165.29945 270.251554 
L 165.986177 269.913214 
L 166.200506 269.802443 
L 166.892702 269.460335 
L 167.112498 269.349565 
L 167.877959 268.956969 
L 168.098849 268.846199 
L 168.774641 268.515394 
L 169.000999 268.404623 
L 169.770834 268.009014 
L 169.992817 267.898243 
L 170.736408 267.520719 
L 170.954017 267.409948 
L 171.740255 267.003035 
L 171.964426 266.892265 
L 172.722232 266.504944 
L 172.945309 266.394174 
L 173.707489 266.003839 
L 173.938221 265.893068 
L 174.614013 265.562263 
L 174.839277 265.451493 
L 175.643011 265.032524 
L 175.869369 264.921753 
L 176.57578 264.569849 
L 176.817446 264.459078 
L 177.53698 264.098132 
L 177.752402 263.987361 
L 178.468655 263.628675 
L 178.692825 263.517905 
L 179.310661 263.227037 
L 179.538113 263.116267 
L 180.328724 262.70634 
L 180.544147 262.595569 
L 181.343506 262.179614 
L 181.554555 262.068844 
L 182.18442 261.769688 
L 182.407497 261.658917 
L 183.061419 261.343183 
L 183.289964 261.232412 
L 184.02918 260.857902 
L 184.257725 260.747131 
L 185.113947 260.291992 
L 185.331557 260.181221 
L 186.063118 259.811986 
L 186.266512 259.701215 
L 187.044002 259.300331 
L 187.267079 259.18956 
L 188.101431 258.749492 
L 188.312479 258.638721 
L 189.060444 258.258183 
L 189.270399 258.147412 
L 190.015083 257.769134 
L 190.23816 257.658364 
L 191.028771 257.248437 
L 191.236539 257.137666 
L 191.987784 256.754867 
L 192.194459 256.644096 
L 192.98179 256.23643 
L 193.196119 256.12566 
L 193.955018 255.737586 
L 194.16716 255.626815 
L 194.902003 255.255319 
L 195.116332 255.144548 
L 195.815088 254.797919 
L 196.02723 254.687148 
L 196.70849 254.352576 
L 196.944689 254.241805 
L 197.793257 253.791941 
L 198.01196 253.68117 
L 198.777421 253.288575 
L 198.999405 253.177804 
L 199.6916 252.835696 
L 199.916864 252.724925 
L 200.647332 252.356443 
L 200.872596 252.245673 
L 201.671956 251.829718 
L 201.898314 251.718947 
L 202.543488 251.409241 
L 202.75563 251.298471 
L 203.532026 250.89834 
L 203.752916 250.787569 
L 204.547901 250.374629 
L 204.778633 250.263858 
L 205.534252 249.878044 
L 205.755142 249.767274 
L 206.448431 249.424412 
L 206.682443 249.313642 
L 207.391041 248.960231 
L 207.628334 248.84946 
L 208.343493 248.491528 
L 208.558915 248.380757 
L 209.283916 248.016043 
L 209.498245 247.905272 
L 210.293231 247.492331 
L 210.495531 247.381561 
L 211.327696 246.942999 
L 211.555147 246.832229 
L 212.320608 246.439633 
L 212.544779 246.328863 
L 213.250096 245.977712 
L 213.467706 245.866942 
L 214.206922 245.492431 
L 214.437654 245.381661 
L 215.165935 245.014686 
L 215.393386 244.903915 
L 216.124948 244.53468 
L 216.338183 244.423909 
L 216.966955 244.125506 
L 217.187845 244.014736 
L 217.900817 243.658311 
L 218.132642 243.54754 
L 218.799686 243.222763 
L 219.026044 243.111993 
L 219.755419 242.744264 
L 219.973028 242.633494 
L 220.618202 242.323788 
L 220.868617 242.213017 
L 221.60674 241.839261 
L 221.819976 241.72849 
L 222.610587 241.318563 
L 222.82601 241.207793 
L 223.558665 240.837804 
L 223.783929 240.727033 
L 224.517678 240.35629 
L 224.752784 240.24552 
L 225.604632 239.793395 
L 225.824429 239.682624 
L 226.53412 239.328459 
L 226.750636 239.217689 
L 227.470169 238.856742 
L 227.705275 238.745972 
L 228.414966 238.391807 
L 228.63695 238.281036 
L 229.360857 237.917076 
L 229.575186 237.806305 
L 230.369078 237.394118 
L 230.587781 237.283347 
L 231.295286 236.930689 
L 231.524924 236.819919 
L 232.290385 236.427323 
L 232.513462 236.316553 
L 233.18488 235.988762 
L 233.403583 235.877991 
L 234.178886 235.478614 
L 234.387747 235.367844 
L 235.073381 235.030257 
L 235.294271 234.919486 
L 235.983186 234.579639 
L 236.200796 234.468868 
L 236.9083 234.116211 
L 237.134658 234.00544 
L 237.853097 233.645247 
L 238.080548 233.534476 
L 238.803362 233.171269 
L 239.019878 233.060499 
L 239.842202 232.628719 
L 240.056531 232.517949 
L 240.785905 232.15022 
L 240.998047 232.03945 
L 241.686962 231.699602 
L 241.89801 231.588832 
L 242.689715 231.178151 
L 242.907325 231.067381 
L 243.704498 230.652933 
L 243.921014 230.542162 
L 244.788171 230.079487 
L 244.997033 229.968717 
L 245.693602 229.623595 
L 245.913399 229.512824 
L 246.64496 229.143588 
L 246.871318 229.032818 
L 247.672865 228.615356 
L 247.932028 228.504585 
L 248.697489 228.11199 
L 248.914005 228.001219 
L 249.692587 227.599581 
L 249.921132 227.488811 
L 250.746736 227.054771 
L 250.966533 226.944 
L 251.727619 226.554419 
L 251.955071 226.443648 
L 252.781768 226.008855 
L 253.0125 225.898084 
L 253.792176 225.495693 
L 254.029469 225.384922 
L 254.703075 225.055624 
L 254.91631 224.944854 
L 255.67521 224.556779 
L 255.888445 224.446009 
L 256.719517 224.008201 
L 256.93822 223.89743 
L 257.734299 223.483736 
L 257.957376 223.372965 
L 258.805944 222.923101 
L 259.033395 222.81233 
L 259.758396 222.447616 
L 259.973818 222.336845 
L 260.70538 221.96761 
L 260.92627 221.856839 
L 261.681889 221.471026 
L 261.901686 221.360255 
L 262.669334 220.966153 
L 262.880382 220.855382 
L 263.559455 220.522317 
L 263.779252 220.411546 
L 264.540338 220.021965 
L 264.760135 219.911194 
L 265.469826 219.55703 
L 265.693997 219.446259 
L 266.449616 219.060446 
L 266.700031 218.949675 
L 267.509232 218.526938 
L 267.721374 218.416167 
L 268.530576 217.99343 
L 268.73397 217.88266 
L 269.347432 217.594807 
L 269.585818 217.484036 
L 270.322847 217.111033 
L 270.540457 217.000262 
L 271.484161 216.48484 
L 271.700677 216.374069 
L 272.410368 216.019904 
L 272.629071 215.909134 
L 273.424057 215.496193 
L 273.639479 215.385422 
L 274.477112 214.943093 
L 274.698002 214.832323 
L 275.385823 214.493229 
L 275.602339 214.382458 
L 276.417008 213.955953 
L 276.636805 213.845183 
L 277.313691 213.513624 
L 277.547703 213.402854 
L 278.265049 213.043414 
L 278.47391 212.932644 
L 279.22953 212.54683 
L 279.462448 212.43606 
L 280.198384 212.06381 
L 280.431303 211.953039 
L 281.196764 211.560444 
L 281.419841 211.449673 
L 282.151402 211.080438 
L 282.385415 210.969667 
L 283.098387 210.613242 
L 283.333493 210.502471 
L 284.102234 210.107616 
L 284.32203 209.996845 
L 285.06234 209.621581 
L 285.272295 209.51081 
L 285.9798 209.158153 
L 286.189755 209.047382 
L 286.931158 208.671365 
L 287.166264 208.560594 
L 287.943753 208.15971 
L 288.174485 208.048939 
L 288.897298 207.685732 
L 289.10944 207.574962 
L 289.943793 207.134893 
L 290.154841 207.024123 
L 290.883122 206.657148 
L 291.104012 206.546377 
L 291.837761 206.175634 
L 292.05209 206.064864 
L 292.840515 205.656444 
L 293.054844 205.545673 
L 293.752506 205.199798 
L 293.984332 205.089027 
L 294.604355 204.796653 
L 294.813216 204.685882 
L 295.507598 204.342267 
L 295.721927 204.231497 
L 296.446928 203.866782 
L 296.654696 203.756012 
L 297.349078 203.412397 
L 297.567781 203.301626 
L 298.349645 202.897728 
L 298.561787 202.786957 
L 299.308658 202.407172 
L 299.5208 202.296401 
L 300.302663 201.892503 
L 300.527927 201.781732 
L 301.28464 201.395165 
L 301.514278 201.284395 
L 302.381436 200.82172 
L 302.608887 200.710949 
L 303.275931 200.386173 
L 303.49026 200.275402 
L 304.268843 199.873764 
L 304.494107 199.762994 
L 305.333927 199.319158 
L 305.547163 199.208387 
L 306.260135 198.851962 
L 306.464622 198.741191 
L 307.31319 198.291327 
L 307.545015 198.180556 
L 308.297354 197.797003 
L 308.525898 197.686233 
L 309.312136 197.27932 
L 309.529745 197.168549 
L 310.322544 196.757116 
L 310.544528 196.646345 
L 311.394189 196.195727 
L 311.623827 196.084956 
L 312.309461 195.74737 
L 312.52379 195.636599 
L 313.371265 195.187488 
L 313.595435 195.076717 
L 314.329184 194.705975 
L 314.540233 194.595204 
L 315.253204 194.238779 
L 315.478469 194.128008 
L 316.283296 193.708285 
L 316.501999 193.597515 
L 317.229187 193.231293 
L 317.462105 193.120523 
L 318.164142 192.771633 
L 318.376284 192.660862 
L 319.161428 192.254703 
L 319.388879 192.143933 
L 320.145592 191.757366 
L 320.368669 191.646595 
L 321.185525 191.218583 
L 321.411883 191.107813 
L 322.130322 190.74762 
L 322.345745 190.636849 
L 323.083868 190.263092 
L 323.31788 190.152322 
L 323.948838 189.852412 
L 324.170822 189.741641 
L 324.891448 189.379941 
L 325.106871 189.269171 
L 325.799066 188.927063 
L 326.030891 188.816292 
L 326.752612 188.453838 
L 326.959286 188.343068 
L 327.740056 187.939923 
L 327.959852 187.829152 
L 328.716565 187.442585 
L 328.942923 187.331815 
L 329.681046 186.958058 
L 329.894281 186.847287 
L 330.597411 186.497644 
L 330.817208 186.386873 
L 331.50831 186.045519 
L 331.712797 185.934748 
L 332.457481 185.55647 
L 332.676184 185.4457 
L 333.441645 185.053104 
L 333.655974 184.942334 
L 334.377694 184.57988 
L 334.59749 184.469109 
L 335.301714 184.118712 
L 335.528072 184.007942 
L 336.267288 183.633432 
L 336.481617 183.522661 
L 337.28207 183.105952 
L 337.488745 182.995182 
L 338.268421 182.59279 
L 338.488218 182.48202 
L 339.267894 182.079628 
L 339.488784 181.968858 
L 340.194102 181.617707 
L 340.421553 181.506937 
L 341.18592 181.115095 
L 341.411184 181.004324 
L 342.182113 180.607961 
L 342.392068 180.497191 
L 343.117068 180.132476 
L 343.346706 180.021706 
L 344.155908 179.598969 
L 344.370237 179.488198 
L 345.287696 178.990861 
L 345.51296 178.88009 
L 346.283889 178.483727 
L 346.494937 178.372956 
L 347.182758 178.033862 
L 347.393807 177.923092 
L 348.19754 177.504123 
L 348.408589 177.393352 
L 349.216697 176.971369 
L 349.445241 176.860598 
L 350.181177 176.488348 
L 350.392226 176.377578 
L 351.200333 175.955594 
L 351.415756 175.844824 
L 352.227144 175.42058 
L 352.439286 175.309809 
L 353.112892 174.980511 
L 353.337062 174.86974 
L 354.099242 174.479406 
L 354.337629 174.368635 
L 355.121679 173.96323 
L 355.334915 173.852459 
L 356.08616 173.46966 
L 356.300489 173.358889 
L 357.13156 172.921081 
L 357.364479 172.810311 
L 358.198831 172.370242 
L 358.42847 172.259472 
L 359.123945 171.915103 
L 359.35249 171.804332 
L 360.137634 171.398173 
L 360.368366 171.287403 
L 361.144762 170.887272 
L 361.376587 170.776501 
L 362.138767 170.386167 
L 362.347628 170.275396 
L 363.058413 169.920478 
L 363.309922 169.809707 
L 364.115843 169.389231 
L 364.330172 169.27846 
L 365.043144 168.922035 
L 365.266221 168.811264 
L 366.013092 168.431479 
L 366.223047 168.320709 
L 367.019126 167.907014 
L 367.237829 167.796244 
L 368.000009 167.405909 
L 368.216525 167.295138 
L 369.015885 166.879183 
L 369.237868 166.768413 
L 370.077688 166.324577 
L 370.290924 166.213806 
L 371.09247 165.796344 
L 371.284929 165.685573 
L 372.103972 165.256054 
L 372.325956 165.145284 
L 373.101258 164.745906 
L 373.305745 164.635136 
L 374.058084 164.251583 
L 374.281161 164.140812 
L 375.053183 163.743696 
L 375.263138 163.632925 
L 376.148885 163.15744 
L 376.363214 163.04667 
L 377.163667 162.629961 
L 377.383464 162.51919 
L 378.101904 162.158997 
L 378.323887 162.048227 
L 379.095909 161.65111 
L 379.325547 161.54034 
L 380.151151 161.1063 
L 380.376415 160.995529 
L 381.296062 160.496684 
L 381.513671 160.385914 
L 382.224456 160.030995 
L 382.453001 159.920225 
L 383.307036 159.466593 
L 383.522459 159.355822 
L 384.282452 158.966994 
L 384.498968 158.856224 
L 385.314731 158.428966 
L 385.541088 158.318195 
L 386.308736 157.924093 
L 386.531813 157.813322 
L 387.288526 157.426755 
L 387.53238 157.315984 
L 388.287999 156.930171 
L 388.51873 156.8194 
L 389.252479 156.448658 
L 389.473369 156.337887 
L 390.298973 155.903847 
L 390.515489 155.793076 
L 391.315943 155.376368 
L 391.533552 155.265597 
L 392.285891 154.882044 
L 392.495846 154.771274 
L 393.301766 154.350797 
L 393.497506 154.240027 
L 394.192981 153.895658 
L 394.40403 153.784887 
L 395.131218 153.418666 
L 395.342266 153.307896 
L 396.141626 152.89194 
L 396.367983 152.78117 
L 397.177185 152.358433 
L 397.384953 152.247662 
L 398.238988 151.79403 
L 398.457691 151.683259 
L 399.177224 151.322313 
L 399.395927 151.211542 
L 400.055317 150.892041 
L 400.286049 150.78127 
L 401.007769 150.418816 
L 401.234126 150.308046 
L 402.082694 149.858181 
L 402.287182 149.747411 
L 403.130282 149.301314 
L 403.357733 149.190543 
L 404.08164 148.826582 
L 404.301437 148.715812 
L 405.075646 148.317188 
L 405.299816 148.206418 
L 406.05981 147.81759 
L 406.267577 147.706819 
L 407.022103 147.321759 
L 407.2419 147.210989 
L 407.967994 146.845521 
L 408.199819 146.73475 
L 409.00574 146.314274 
L 409.213508 146.203503 
L 410.041299 145.767956 
L 410.262189 145.657186 
L 410.970787 145.303775 
L 411.197144 145.193004 
L 411.865282 144.867474 
L 412.09164 144.756703 
L 412.967546 144.288 
L 413.180781 144.17723 
L 413.942961 143.786895 
L 414.151823 143.676124 
L 414.821054 143.349841 
L 415.033196 143.23907 
L 415.758197 142.874356 
L 415.990022 142.763585 
L 416.727051 142.390582 
L 416.9381 142.279811 
L 417.804164 141.81789 
L 418.023961 141.70712 
L 418.789421 141.314524 
L 419.014685 141.203754 
L 419.793268 140.802116 
L 419.994475 140.691345 
L 420.738066 140.313821 
L 420.952395 140.20305 
L 421.757222 139.783327 
L 421.972644 139.672557 
L 422.673588 139.32442 
L 422.878075 139.21365 
L 423.58886 138.858732 
L 423.799908 138.747961 
L 424.615671 138.320703 
L 424.823439 138.209932 
L 425.520008 137.86481 
L 425.745272 137.754039 
L 426.423252 137.421727 
L 426.650703 137.310957 
L 427.441314 136.90103 
L 427.655643 136.790259 
L 428.500931 136.342655 
L 428.704325 136.231885 
L 429.533209 135.795584 
L 429.76066 135.684813 
L 430.553459 135.27338 
L 430.771069 135.162609 
L 431.452329 134.828036 
L 431.684154 134.717266 
L 432.425557 134.341248 
L 432.66285 134.230478 
L 433.386757 133.866517 
L 433.599993 133.755746 
L 434.30531 133.404596 
L 434.530574 133.293825 
L 435.254481 132.929865 
L 435.462249 132.819094 
L 436.230991 132.424238 
L 436.444226 132.313467 
L 437.15173 131.96081 
L 437.386836 131.850039 
L 438.068096 131.515467 
L 438.284612 131.404696 
L 439.088346 130.985727 
L 439.322358 130.874956 
L 440.109689 130.46729 
L 440.332766 130.356519 
L 441.124472 129.945839 
L 441.347549 129.835069 
L 442.032089 129.498235 
L 442.251886 129.387465 
L 442.963764 129.031793 
L 443.194496 128.921022 
L 443.895439 128.572886 
L 444.109768 128.462115 
L 444.799777 128.121514 
L 445.01848 128.010744 
L 445.768631 127.628698 
L 445.992802 127.517928 
L 446.750608 127.130607 
L 446.970404 127.019836 
L 447.735865 126.627241 
L 447.960036 126.51647 
L 448.639109 126.183405 
L 448.852344 126.072634 
L 449.613431 125.683053 
L 449.825573 125.572283 
L 450.653364 125.136735 
L 450.887376 125.025965 
L 451.718448 124.588157 
L 451.937151 124.477386 
L 452.685115 124.096848 
L 452.918034 123.986077 
L 453.65397 123.613827 
L 453.875954 123.503057 
L 454.640321 123.111215 
L 454.877614 123.000444 
L 455.533723 122.683203 
L 455.758987 122.572433 
L 456.424938 122.24841 
L 456.678633 122.137639 
L 457.465964 121.729973 
L 457.683574 121.619202 
L 458.40092 121.259763 
L 458.605407 121.148992 
L 459.298696 120.806131 
L 459.529428 120.69536 
L 460.295982 120.302011 
L 460.517966 120.191241 
L 461.271398 119.806934 
L 461.499942 119.696164 
L 462.203073 119.34652 
L 462.416308 119.23575 
L 463.136935 118.87405 
L 463.35017 118.763279 
L 464.135314 118.35712 
L 464.375888 118.246349 
L 465.087766 117.890678 
L 465.303189 117.779907 
L 466.000851 117.434031 
L 466.225022 117.323261 
L 466.980641 116.937447 
L 467.198251 116.826676 
L 467.99433 116.412982 
L 468.220688 116.302211 
L 468.991616 115.905848 
L 469.227815 115.795078 
L 470.054513 115.360284 
L 470.262281 115.249514 
L 471.015713 114.865207 
L 471.224574 114.754437 
L 471.904741 114.420618 
L 472.11907 114.309847 
L 472.842977 113.945886 
L 473.066054 113.835116 
L 473.827141 113.445534 
L 474.049124 113.334764 
L 474.84739 112.919562 
L 475.070467 112.808792 
L 475.818432 112.428253 
L 476.039322 112.317482 
L 476.70746 111.991952 
L 476.917415 111.881182 
L 477.669753 111.497629 
L 477.890643 111.386858 
L 478.627673 111.013855 
L 478.838721 110.903084 
L 479.605275 110.509736 
L 479.81523 110.398965 
L 480.603655 109.990545 
L 480.817984 109.879775 
L 481.619531 109.462313 
L 481.850262 109.351542 
L 482.668212 108.922777 
L 482.878167 108.812006 
L 483.672059 108.399819 
L 483.892949 108.289048 
L 484.609201 107.930362 
L 484.837746 107.819591 
L 485.584617 107.439806 
L 485.805507 107.329036 
L 486.617989 106.904038 
L 486.848721 106.793267 
L 487.653548 106.373545 
L 487.876625 106.262774 
L 488.609281 105.892785 
L 488.819235 105.782014 
L 489.603286 105.376609 
L 489.805586 105.265838 
L 490.576515 104.869475 
L 490.798498 104.758705 
L 491.50819 104.40454 
L 491.721425 104.293769 
L 492.452987 103.924534 
L 492.665129 103.813763 
L 493.408719 103.436239 
L 493.616487 103.325468 
L 494.328366 102.969796 
L 494.552536 102.859026 
L 495.332213 102.456634 
L 495.547635 102.345864 
L 496.273729 101.980396 
L 496.481497 101.869625 
L 497.215246 101.498883 
L 497.430669 101.388112 
L 498.133799 101.038469 
L 498.355782 100.927698 
L 499.131085 100.528321 
L 499.357443 100.41755 
L 500.181953 99.984264 
L 500.396282 99.873493 
L 501.221886 99.439453 
L 501.442776 99.328682 
L 502.110914 99.003152 
L 502.338365 98.892382 
L 503.146473 98.470398 
L 503.361896 98.359628 
L 504.122982 97.970047 
L 504.341685 97.859276 
L 505.147606 97.4388 
L 505.364122 97.328029 
L 506.210503 96.879672 
L 506.443422 96.768901 
L 507.208882 96.376306 
L 507.429773 96.265535 
L 508.161334 95.8963 
L 508.389879 95.785529 
L 509.138937 95.404237 
L 509.363108 95.293466 
L 510.041087 94.961154 
L 510.253229 94.850384 
L 510.93777 94.51355 
L 511.152099 94.40278 
L 511.950365 93.987578 
L 512.177816 93.876808 
L 512.915939 93.503051 
L 513.139016 93.39228 
L 513.948217 92.969543 
L 514.171294 92.858773 
L 514.893015 92.496319 
L 515.111718 92.385548 
L 515.854215 92.008777 
L 516.070731 91.898007 
L 516.796825 91.532539 
L 517.018808 91.421768 
L 517.719752 91.073632 
L 517.941735 90.962861 
L 518.750937 90.540124 
L 518.967453 90.429354 
L 519.662928 90.084985 
L 519.865229 89.974215 
L 520.65584 89.564288 
L 520.893133 89.453517 
L 521.596263 89.103874 
L 521.804031 88.993103 
L 522.511536 88.640446 
L 522.726958 88.529675 
L 523.463988 88.156672 
L 523.682691 88.045901 
L 524.49736 87.619396 
L 524.709502 87.508626 
L 525.441063 87.13939 
L 525.645551 87.02862 
L 526.373832 86.661645 
L 526.594722 86.550874 
L 527.398456 86.131905 
L 527.617159 86.021134 
L 528.40449 85.613468 
L 528.608977 85.502698 
L 529.343819 85.131201 
L 529.578925 85.020431 
L 530.331264 84.636878 
L 530.555434 84.526107 
L 531.311053 84.140294 
L 531.540692 84.029523 
L 532.312713 83.632407 
L 532.517201 83.521636 
L 533.287036 83.126027 
L 533.501365 83.015256 
L 534.330249 82.578955 
L 534.550046 82.468185 
L 535.301291 82.085385 
L 535.514526 81.974615 
L 536.274519 81.585787 
L 536.488848 81.475017 
L 537.247748 81.086943 
L 537.471919 80.976172 
L 538.272372 80.559463 
L 538.505291 80.448693 
L 539.292622 80.041027 
L 539.528821 79.930256 
L 540.22211 79.587394 
L 540.433158 79.476624 
L 541.143943 79.121706 
L 541.354992 79.010935 
L 542.014381 78.691433 
L 542.226523 78.580663 
L 542.961366 78.209166 
L 543.176788 78.098396 
L 543.931314 77.713336 
L 544.158765 77.602565 
L 544.876111 77.243126 
L 545.092627 77.132355 
L 545.922605 76.695301 
L 546.144589 76.58453 
L 546.871776 76.218309 
L 547.103602 76.107538 
L 547.895307 75.696858 
L 548.099794 75.586087 
L 548.939614 75.142251 
L 549.151756 75.031481 
L 549.889879 74.657724 
L 550.106395 74.546953 
L 550.827021 74.185253 
L 551.049005 74.074483 
L 551.798063 73.69319 
L 552.010205 73.58242 
L 552.841276 73.144612 
L 553.055605 73.033841 
L 553.836375 72.630697 
L 554.053985 72.519926 
L 554.873028 72.090407 
L 555.087357 71.979636 
L 555.823293 71.607387 
L 556.041996 71.496616 
L 556.760435 71.136423 
L 556.981325 71.025653 
L 557.775218 70.613465 
L 558.001575 70.502695 
L 558.818431 70.074683 
L 559.02948 69.963912 
L 559.731516 69.615022 
L 559.940378 69.504252 
L 560.67194 69.135016 
L 560.89283 69.024246 
L 561.572996 68.690426 
L 561.793886 68.579656 
L 562.465305 68.251865 
L 562.680727 68.141095 
L 563.401354 67.779394 
L 563.628805 67.668624 
L 564.370208 67.292606 
L 564.588911 67.181836 
L 565.407954 66.752317 
L 565.627751 66.641546 
L 566.323227 66.297178 
L 566.529901 66.186407 
L 567.288801 65.798333 
L 567.509691 65.687562 
L 568.221569 65.331891 
L 568.457769 65.22112 
L 569.242913 64.814961 
L 569.453961 64.70419 
L 570.192084 64.330434 
L 570.423909 64.219663 
L 571.201399 63.818779 
L 571.415728 63.708008 
L 572.220555 63.288285 
L 572.462222 63.177515 
L 573.175194 62.821089 
L 573.387336 62.710319 
L 574.081718 62.366704 
L 574.306982 62.255933 
L 575.091033 61.850528 
L 575.291146 61.739757 
L 576.064261 61.341887 
L 576.281871 61.231116 
L 577.011245 60.863388 
L 577.225574 60.752617 
L 578.021654 60.338923 
L 578.24145 60.228152 
L 579.075802 59.788084 
L 579.290131 59.677313 
L 580.038096 59.296774 
L 580.253518 59.186004 
L 580.970864 58.826564 
L 581.179726 58.715794 
L 581.930971 58.332995 
L 582.140926 58.222224 
L 582.984026 57.776127 
L 583.201636 57.665356 
L 583.979125 57.264472 
L 584.19236 57.153702 
L 585.03218 56.709865 
L 585.25307 56.599095 
L 586.021812 56.204239 
L 586.240515 56.093468 
L 587.010349 55.697859 
L 587.21593 55.587088 
L 587.938744 55.223881 
L 588.147605 55.11311 
L 588.892289 54.734832 
L 589.114273 54.624062 
L 589.849115 54.252566 
L 590.052509 54.141795 
L 590.831092 53.740157 
L 591.046514 53.629387 
L 591.732149 53.2918 
L 591.948665 53.181029 
L 592.669291 52.819329 
L 592.881433 52.708559 
L 593.5616 52.37474 
L 593.786864 52.263969 
L 594.5228 51.891719 
L 594.740409 51.780949 
L 595.46541 51.416234 
L 595.690674 51.305464 
L 596.463789 50.907594 
L 596.685773 50.796823 
L 597.419522 50.42608 
L 597.650253 50.31531 
L 598.3337 49.97923 
L 598.565526 49.868459 
L 599.285059 49.507513 
L 599.510323 49.396742 
L 600.337021 48.961949 
L 600.548069 48.851178 
L 601.325558 48.450294 
L 601.542074 48.339523 
L 602.288945 47.959738 
L 602.520771 47.848967 
L 603.244678 47.485007 
L 603.472129 47.374236 
L 604.305388 46.934921 
L 604.518623 46.824151 
L 605.178013 46.504649 
L 605.389061 46.393878 
L 606.151241 46.003544 
L 606.360103 45.892773 
L 607.137592 45.491889 
L 607.361763 45.381118 
L 608.115195 44.996812 
L 608.326243 44.886041 
L 609.066553 44.510777 
L 609.26776 44.400007 
L 609.990574 44.0368 
L 610.21037 43.926029 
L 611.064406 43.472397 
L 611.283109 43.361626 
L 612.027793 42.983348 
L 612.248683 42.872577 
L 613.002115 42.488271 
L 613.223005 42.3775 
L 613.954567 42.008265 
L 614.171083 41.897494 
L 614.995593 41.464208 
L 615.221951 41.353437 
L 615.976477 40.968377 
L 616.205021 40.857607 
L 616.954079 40.476315 
L 617.169502 40.365544 
L 617.76 40.051317 
L 617.76 40.051317 
" clip-path="url(#pbcfaf71966)" style="fill: none; stroke: #2563eb; stroke-width: 1.5; stroke-linecap: square"/>
   </g>
   <g id="line2d_29">
    <path d="M 71.002344 317.877656 
L 72.168031 317.766886 
L 72.395482 317.745033 
L 73.414639 317.634262 
L 73.648651 317.607888 
L 74.795748 317.497118 
L 75.028667 317.471497 
L 76.430554 317.360727 
L 76.659098 317.33812 
L 77.922109 317.22735 
L 78.139718 317.212279 
L 79.142472 317.101508 
L 79.369923 317.079655 
L 80.522488 316.968885 
L 80.749939 316.947032 
L 81.911253 316.836261 
L 82.129956 316.820437 
L 83.27924 316.709666 
L 83.504504 316.689321 
L 84.664724 316.57855 
L 84.898736 316.552176 
L 86.01959 316.441406 
L 86.252508 316.415785 
L 87.291348 316.305015 
L 87.520986 316.281655 
L 88.542329 316.170884 
L 88.774155 316.146017 
L 89.996705 316.035247 
L 90.215408 316.019422 
L 91.328606 315.908652 
L 91.544029 315.895088 
L 92.779701 315.784317 
L 93.010433 315.760204 
L 94.195804 315.649433 
L 94.424348 315.626827 
L 95.510209 315.516056 
L 95.725631 315.502493 
L 96.847578 315.391722 
L 97.070655 315.372883 
L 98.246184 315.262113 
L 98.476916 315.237999 
L 99.569338 315.127229 
L 99.78476 315.113665 
L 100.940606 315.002894 
L 101.176805 314.975013 
L 102.100826 314.864243 
L 102.321716 314.846911 
L 103.518022 314.73614 
L 103.743286 314.715795 
L 104.864139 314.605024 
L 105.099245 314.577897 
L 106.197134 314.467126 
L 106.43224 314.439999 
L 107.469986 314.329228 
L 107.693063 314.310389 
L 108.962634 314.199619 
L 109.19446 314.174752 
L 110.354679 314.063981 
L 110.589785 314.036854 
L 111.709545 313.926083 
L 111.942464 313.900463 
L 113.080813 313.789692 
L 113.309358 313.767086 
L 114.533001 313.656315 
L 114.76592 313.630695 
L 116.063923 313.519924 
L 116.299029 313.492797 
L 117.525953 313.382026 
L 117.74903 313.363187 
L 118.81302 313.252417 
L 119.048126 313.225289 
L 120.083685 313.114519 
L 120.308949 313.094173 
L 121.333573 312.983402 
L 121.563211 312.960042 
L 122.853559 312.849272 
L 123.086478 312.823651 
L 124.310122 312.712881 
L 124.54304 312.68726 
L 125.611405 312.57649 
L 125.83995 312.553883 
L 127.018759 312.443113 
L 127.250584 312.418246 
L 128.414085 312.307475 
L 128.647003 312.281855 
L 129.858618 312.171084 
L 130.084976 312.149985 
L 131.158808 312.039214 
L 131.39282 312.01284 
L 132.532263 311.90207 
L 132.759715 311.880217 
L 134.026005 311.769446 
L 134.252363 311.748347 
L 135.416957 311.637577 
L 135.637847 311.620245 
L 136.644974 311.509475 
L 136.862584 311.494404 
L 138.170428 311.383633 
L 138.394599 311.364041 
L 139.50233 311.25327 
L 139.726501 311.233678 
L 140.954518 311.122908 
L 141.186344 311.098041 
L 142.352031 310.98727 
L 142.581669 310.96391 
L 143.691587 310.85314 
L 143.916851 310.832794 
L 145.174394 310.722023 
L 145.402939 310.699417 
L 146.559878 310.588646 
L 146.803732 310.555491 
L 148.057994 310.44472 
L 148.289819 310.419853 
L 149.439104 310.309082 
L 149.65562 310.294765 
L 150.816933 310.183995 
L 151.043291 310.162895 
L 152.261467 310.052125 
L 152.492198 310.028011 
L 153.582433 309.917241 
L 153.814258 309.892374 
L 155.036808 309.781603 
L 155.254418 309.766532 
L 156.352307 309.655762 
L 156.588507 309.627881 
L 157.692957 309.51711 
L 157.916034 309.498271 
L 159.05001 309.387501 
L 159.277461 309.365648 
L 160.41253 309.254877 
L 160.649823 309.226243 
L 161.828632 309.115472 
L 162.057177 309.092866 
L 163.136476 308.982095 
L 163.350805 308.969285 
L 164.561327 308.858514 
L 164.79862 308.82988 
L 165.748884 308.719109 
L 165.977429 308.696503 
L 166.967061 308.585732 
L 167.190138 308.566894 
L 168.350357 308.456123 
L 168.579996 308.432763 
L 169.723813 308.321993 
L 169.954544 308.297879 
L 171.161785 308.187109 
L 171.384862 308.16827 
L 172.554924 308.0575 
L 172.791123 308.029619 
L 173.924005 307.918848 
L 174.148176 307.899256 
L 175.075477 307.788485 
L 175.300741 307.76814 
L 176.446745 307.657369 
L 176.675289 307.634763 
L 177.768805 307.523992 
L 178.012659 307.490836 
L 179.168504 307.380065 
L 179.397049 307.357459 
L 180.640376 307.246689 
L 180.885323 307.212779 
L 181.978839 307.102009 
L 182.211758 307.076388 
L 183.218885 306.965617 
L 183.44743 306.943011 
L 184.694037 306.832241 
L 184.917114 306.813402 
L 186.138571 306.702631 
L 186.364929 306.681532 
L 187.584198 306.570762 
L 187.802901 306.554937 
L 189.041854 306.444167 
L 189.269305 306.422314 
L 190.342044 306.311543 
L 190.569495 306.28969 
L 191.965914 306.17892 
L 192.192272 306.157821 
L 193.338276 306.04705 
L 193.553698 306.033486 
L 194.689861 305.922716 
L 194.916218 305.901616 
L 196.132207 305.790846 
L 196.358565 305.769747 
L 197.38975 305.658976 
L 197.612827 305.640137 
L 198.850687 305.529367 
L 199.081418 305.505253 
L 200.27663 305.394483 
L 200.492053 305.380919 
L 201.584475 305.270148 
L 201.823955 305.240007 
L 202.868262 305.129236 
L 203.089152 305.111905 
L 204.547901 305.001134 
L 204.787381 304.970992 
L 205.935572 304.860222 
L 206.163023 304.838369 
L 207.113288 304.727598 
L 207.339646 304.706499 
L 208.510801 304.595729 
L 208.740439 304.572369 
L 209.878788 304.461598 
L 210.10624 304.439745 
L 211.357221 304.328975 
L 211.592327 304.301847 
L 212.729583 304.191077 
L 212.95266 304.172238 
L 214.298777 304.061467 
L 214.542631 304.028312 
L 215.656923 303.917541 
L 215.893123 303.88966 
L 216.831359 303.778889 
L 217.070839 303.748748 
L 218.233245 303.637977 
L 218.468351 303.610849 
L 219.536716 303.500079 
L 219.757606 303.482747 
L 220.777856 303.371977 
L 221.0064 303.34937 
L 222.181929 303.2386 
L 222.398445 303.224282 
L 223.766433 303.113512 
L 223.998258 303.088645 
L 225.305009 302.977874 
L 225.523712 302.96205 
L 226.793283 302.851279 
L 227.025109 302.826412 
L 228.027862 302.715642 
L 228.265155 302.687007 
L 229.352109 302.576237 
L 229.583934 302.55137 
L 230.849132 302.440599 
L 231.076583 302.418746 
L 232.236803 302.307976 
L 232.462067 302.28763 
L 233.646344 302.176859 
L 233.871608 302.156514 
L 235.008864 302.045743 
L 235.239596 302.02163 
L 236.32983 301.910859 
L 236.559469 301.887499 
L 237.662825 301.776729 
L 237.893557 301.752615 
L 239.031907 301.641845 
L 239.248423 301.627527 
L 240.499404 301.516757 
L 240.726855 301.494904 
L 241.75804 301.384133 
L 241.982211 301.364541 
L 243.255063 301.253771 
L 243.47814 301.234932 
L 244.662417 301.124161 
L 244.886588 301.104569 
L 246.125541 300.993799 
L 246.36502 300.963657 
L 247.588664 300.852886 
L 247.82705 300.823498 
L 249.032104 300.712728 
L 249.266116 300.686354 
L 250.475544 300.575583 
L 250.700809 300.555237 
L 251.847906 300.444467 
L 252.072077 300.424875 
L 253.239951 300.314104 
L 253.468496 300.291498 
L 254.59591 300.180727 
L 254.828829 300.155107 
L 255.907035 300.044336 
L 256.129019 300.026251 
L 257.424834 299.91548 
L 257.651192 299.894381 
L 259.083697 299.783611 
L 259.313335 299.760251 
L 260.378419 299.64948 
L 260.612431 299.623106 
L 261.841543 299.512336 
L 262.0679 299.491236 
L 263.118768 299.380466 
L 263.354968 299.352585 
L 264.625633 299.241814 
L 264.859645 299.21544 
L 266.007836 299.104669 
L 266.232007 299.085077 
L 267.363795 298.974307 
L 267.59234 298.9517 
L 268.934083 298.84093 
L 269.162628 298.818324 
L 270.334876 298.707553 
L 270.551392 298.693236 
L 271.847208 298.582465 
L 272.084501 298.55383 
L 273.354072 298.44306 
L 273.574962 298.425728 
L 274.837972 298.314958 
L 275.077452 298.284816 
L 276.365613 298.174045 
L 276.587597 298.15596 
L 277.622062 298.04519 
L 277.854981 298.019569 
L 278.991143 297.908799 
L 279.220781 297.885439 
L 280.192917 297.774668 
L 280.435677 297.742266 
L 281.536847 297.631495 
L 281.770859 297.605121 
L 282.790015 297.494351 
L 283.014186 297.474759 
L 284.115356 297.363988 
L 284.346088 297.339875 
L 285.46038 297.229104 
L 285.68455 297.209512 
L 286.876482 297.098741 
L 287.108307 297.073874 
L 288.26634 296.963104 
L 288.500352 296.93673 
L 289.815851 296.825959 
L 290.035648 296.809381 
L 291.201335 296.698611 
L 291.432067 296.674497 
L 292.625092 296.563727 
L 292.856917 296.53886 
L 293.960274 296.428089 
L 294.187726 296.406236 
L 295.240781 296.295466 
L 295.463858 296.276627 
L 296.547532 296.165856 
L 296.767328 296.149279 
L 297.847721 296.038508 
L 298.069705 296.020423 
L 299.317406 295.909652 
L 299.541576 295.89006 
L 300.777249 295.77929 
L 300.994858 295.764219 
L 302.347537 295.653448 
L 302.56952 295.635363 
L 303.621482 295.524592 
L 303.855494 295.498218 
L 305.039771 295.387448 
L 305.261755 295.369363 
L 306.371673 295.258592 
L 306.606779 295.231465 
L 307.823861 295.120694 
L 308.046939 295.101855 
L 309.317603 294.991085 
L 309.542868 294.970739 
L 310.754483 294.859969 
L 310.972092 294.844898 
L 312.00109 294.734127 
L 312.227448 294.713028 
L 313.560443 294.602257 
L 313.78352 294.583419 
L 314.957955 294.472648 
L 315.185407 294.450795 
L 316.320475 294.340025 
L 316.556675 294.312144 
L 317.578018 294.201373 
L 317.797815 294.184795 
L 318.926322 294.074024 
L 319.15268 294.052925 
L 320.336957 293.942155 
L 320.565502 293.919548 
L 321.77821 293.808778 
L 322.005662 293.786925 
L 323.035753 293.676154 
L 323.270859 293.649027 
L 324.450762 293.538256 
L 324.677119 293.517157 
L 325.70065 293.406386 
L 325.920446 293.389808 
L 327.137529 293.279038 
L 327.377009 293.248896 
L 328.655328 293.138126 
L 328.884966 293.114766 
L 330.050654 293.003995 
L 330.277011 292.982896 
L 331.256801 292.872125 
L 331.487533 292.848012 
L 332.698054 292.737241 
L 332.926599 292.714635 
L 334.014647 292.603864 
L 334.234443 292.587286 
L 335.244851 292.476516 
L 335.47449 292.453156 
L 336.573473 292.342385 
L 336.806391 292.316765 
L 337.929432 292.205994 
L 338.157976 292.183388 
L 339.368498 292.072617 
L 339.598136 292.049258 
L 340.774758 291.938487 
L 341.008771 291.912113 
L 342.045423 291.801342 
L 342.271781 291.780243 
L 343.454964 291.669473 
L 343.680229 291.649127 
L 345.095237 291.538356 
L 345.321595 291.517257 
L 346.558361 291.406486 
L 346.792373 291.380113 
L 348.101311 291.269342 
L 348.317827 291.255025 
L 349.488982 291.144254 
L 349.717527 291.121648 
L 350.932422 291.010877 
L 351.160967 290.988271 
L 352.44038 290.8775 
L 352.684234 290.844344 
L 353.746037 290.733574 
L 353.974582 290.710967 
L 355.18729 290.600197 
L 355.412554 290.579851 
L 356.731334 290.46908 
L 356.952224 290.451749 
L 358.236011 290.340978 
L 358.474397 290.31159 
L 359.642272 290.20082 
L 359.87191 290.17746 
L 361.061654 290.066689 
L 361.291293 290.043329 
L 362.586015 289.932559 
L 362.81784 289.907692 
L 363.967125 289.796921 
L 364.195669 289.774315 
L 365.341673 289.663544 
L 365.578966 289.63491 
L 366.722783 289.524139 
L 366.952421 289.500779 
L 368.306193 289.390009 
L 368.527083 289.372677 
L 369.84805 289.261907 
L 370.070034 289.243822 
L 371.313361 289.133051 
L 371.547373 289.106677 
L 372.787419 288.995906 
L 373.015964 288.9733 
L 374.249449 288.862529 
L 374.4769 288.840677 
L 375.763968 288.729906 
L 375.992513 288.7073 
L 377.252242 288.596529 
L 377.473132 288.579198 
L 378.495569 288.468427 
L 378.718646 288.449588 
L 379.885427 288.338818 
L 380.126 288.307923 
L 381.50711 288.197152 
L 381.735655 288.174546 
L 382.912277 288.063775 
L 383.145196 288.038155 
L 384.290107 287.927384 
L 384.521932 287.902517 
L 385.742295 287.791746 
L 385.956624 287.778936 
L 387.183548 287.668166 
L 387.413186 287.644806 
L 388.481551 287.534035 
L 388.711189 287.510675 
L 390.024501 287.399905 
L 390.250859 287.378806 
L 391.657119 287.268035 
L 391.887851 287.243922 
L 393.201163 287.133151 
L 393.423147 287.115066 
L 394.501353 287.004295 
L 394.732084 286.980182 
L 395.927297 286.869411 
L 396.151467 286.849819 
L 397.415571 286.739049 
L 397.644116 286.716442 
L 398.817458 286.605672 
L 399.05147 286.579298 
L 400.218251 286.468527 
L 400.453357 286.4414 
L 401.639821 286.330629 
L 401.855243 286.317065 
L 403.188238 286.206295 
L 403.416783 286.183688 
L 404.610902 286.072918 
L 404.837259 286.051818 
L 406.086054 285.941048 
L 406.314599 285.918442 
L 407.386244 285.807671 
L 407.609321 285.788832 
L 408.787037 285.678062 
L 409.00902 285.659977 
L 410.278592 285.549206 
L 410.51151 285.523586 
L 411.602839 285.412815 
L 411.844506 285.381166 
L 413.125012 285.270396 
L 413.35465 285.247036 
L 414.587042 285.136265 
L 414.824335 285.107631 
L 415.842398 284.99686 
L 416.073129 284.972747 
L 417.422527 284.861976 
L 417.647791 284.84163 
L 418.826601 284.73086 
L 419.066081 284.700718 
L 420.266761 284.589947 
L 420.497492 284.565834 
L 421.702546 284.455063 
L 421.923436 284.437732 
L 423.027887 284.326961 
L 423.271741 284.293805 
L 424.554434 284.183035 
L 424.778605 284.163443 
L 425.839315 284.052672 
L 426.059111 284.036094 
L 427.27182 283.925324 
L 427.49599 283.905731 
L 428.736037 283.794961 
L 428.964581 283.772355 
L 430.165261 283.661584 
L 430.37631 283.651034 
L 431.513565 283.540264 
L 431.751952 283.510876 
L 432.846561 283.400105 
L 433.069638 283.381266 
L 434.095355 283.270496 
L 434.316245 283.253164 
L 435.560666 283.142394 
L 435.795771 283.115266 
L 436.963646 283.004495 
L 437.186723 282.985657 
L 438.341475 282.874886 
L 438.562365 282.857555 
L 439.853807 282.746784 
L 440.084539 282.722671 
L 441.312556 282.6119 
L 441.540007 282.590047 
L 442.600717 282.479277 
L 442.836917 282.451396 
L 443.872476 282.340625 
L 444.087898 282.327061 
L 445.054566 282.216291 
L 445.278736 282.196699 
L 446.401776 282.085928 
L 446.629228 282.064075 
L 447.705247 281.953305 
L 447.934885 281.929945 
L 449.040429 281.819174 
L 449.260225 281.802596 
L 450.427006 281.691826 
L 450.64899 281.673741 
L 451.870447 281.56297 
L 452.103365 281.53735 
L 453.298578 281.426579 
L 453.536964 281.397191 
L 454.805442 281.28642 
L 455.03508 281.26306 
L 455.944885 281.15229 
L 456.163588 281.136465 
L 457.117133 281.025695 
L 457.346771 281.002335 
L 458.556199 280.891564 
L 458.786931 280.867451 
L 459.850921 280.75668 
L 460.073998 280.737842 
L 461.28452 280.627071 
L 461.519626 280.599944 
L 462.620796 280.489173 
L 462.858088 280.460538 
L 464.039085 280.349768 
L 464.26763 280.327161 
L 465.521892 280.216391 
L 465.748249 280.195292 
L 466.754283 280.084521 
L 466.982828 280.061915 
L 468.164918 279.951144 
L 468.393463 279.928538 
L 469.530719 279.817767 
L 469.749422 279.801943 
L 471.012432 279.691172 
L 471.234416 279.673087 
L 472.2995 279.562317 
L 472.534605 279.535189 
L 473.706854 279.424418 
L 473.921183 279.411608 
L 475.130611 279.300837 
L 475.34822 279.285767 
L 476.4308 279.174996 
L 476.665906 279.147869 
L 477.853464 279.037098 
L 478.083102 279.013738 
L 479.217077 278.902967 
L 479.445622 278.880361 
L 480.603655 278.769591 
L 480.824545 278.752259 
L 481.87432 278.641488 
L 482.101771 278.619636 
L 483.413989 278.508865 
L 483.642534 278.486259 
L 484.845401 278.375488 
L 485.0816 278.347607 
L 486.250568 278.236836 
L 486.473645 278.217998 
L 487.629491 278.107227 
L 487.858035 278.084621 
L 488.940616 277.97385 
L 489.171347 277.949737 
L 490.504343 277.838966 
L 490.72742 277.820128 
L 491.844992 277.709357 
L 492.069163 277.689765 
L 493.187829 277.578994 
L 493.41528 277.557142 
L 494.590809 277.446371 
L 494.817167 277.425272 
L 495.931459 277.314501 
L 496.163284 277.289634 
L 497.26008 277.178864 
L 497.483157 277.160025 
L 498.640096 277.049255 
L 498.865361 277.028909 
L 500.193982 276.918138 
L 500.42362 276.894779 
L 501.681163 276.784008 
L 501.927203 276.749345 
L 503.191307 276.638574 
L 503.424226 276.612954 
L 504.668646 276.502183 
L 504.885162 276.487866 
L 506.180978 276.377095 
L 506.407336 276.355996 
L 507.627699 276.245226 
L 507.854056 276.224126 
L 508.960694 276.113356 
L 509.188145 276.091503 
L 510.210582 275.980732 
L 510.434753 275.96114 
L 511.526081 275.85037 
L 511.746971 275.833038 
L 512.933435 275.722268 
L 513.157606 275.702675 
L 514.369221 275.591905 
L 514.601046 275.567038 
L 515.697842 275.456267 
L 515.92748 275.432907 
L 517.055988 275.322137 
L 517.285626 275.298777 
L 518.399918 275.188006 
L 518.629556 275.164647 
L 519.706669 275.053876 
L 519.93084 275.034284 
L 520.978427 274.923513 
L 521.204785 274.902414 
L 522.349695 274.791643 
L 522.583708 274.765269 
L 523.829222 274.654499 
L 524.052299 274.63566 
L 525.326244 274.52489 
L 525.553695 274.503037 
L 526.920589 274.392266 
L 527.148041 274.370414 
L 528.356375 274.259643 
L 528.576172 274.243065 
L 529.859959 274.132294 
L 530.102719 274.099892 
L 531.270593 273.989121 
L 531.502419 273.964254 
L 532.71294 273.853484 
L 532.943672 273.829371 
L 534.045935 273.7186 
L 534.262451 273.704283 
L 535.381117 273.593512 
L 535.605288 273.57392 
L 536.871579 273.463149 
L 537.106685 273.436022 
L 538.301897 273.325251 
L 538.543564 273.293602 
L 539.638173 273.182832 
L 539.868904 273.158718 
L 540.966794 273.047948 
L 541.198619 273.023081 
L 542.276825 272.91231 
L 542.507557 272.888197 
L 543.645906 272.777426 
L 543.873357 272.755573 
L 544.836744 272.644803 
L 545.055447 272.628978 
L 546.315177 272.518208 
L 546.543722 272.495602 
L 547.688632 272.384831 
L 547.916083 272.362978 
L 549.171439 272.252208 
L 549.403264 272.227341 
L 550.528492 272.11657 
L 550.759223 272.092457 
L 551.889918 271.981686 
L 552.118463 271.95908 
L 553.522536 271.848309 
L 553.751081 271.825703 
L 554.834755 271.714932 
L 555.058925 271.69534 
L 556.394108 271.584569 
L 556.620465 271.56347 
L 557.743506 271.4527 
L 557.976424 271.427079 
L 559.205536 271.316309 
L 559.423145 271.301238 
L 560.471826 271.190467 
L 560.695997 271.170875 
L 561.728275 271.060104 
L 561.961194 271.034484 
L 562.970509 270.923713 
L 563.196866 270.902614 
L 564.348338 270.791844 
L 564.576883 270.769237 
L 565.793965 270.658467 
L 566.018136 270.638875 
L 567.16414 270.528104 
L 567.383937 270.511526 
L 568.446833 270.400755 
L 568.679752 270.375135 
L 570.032431 270.264364 
L 570.264256 270.239497 
L 571.352304 270.128727 
L 571.581942 270.105367 
L 572.699515 269.994596 
L 572.922592 269.975758 
L 574.055474 269.864987 
L 574.285112 269.841627 
L 575.584208 269.730857 
L 575.810566 269.709758 
L 577.005778 269.598987 
L 577.229948 269.579395 
L 578.416413 269.468624 
L 578.641677 269.448279 
L 579.828141 269.337508 
L 580.054499 269.316409 
L 581.292358 269.205638 
L 581.514341 269.187553 
L 582.719395 269.076782 
L 582.951221 269.051916 
L 584.198922 268.941145 
L 584.418718 268.924567 
L 585.686102 268.813796 
L 585.913554 268.791944 
L 587.1536 268.681173 
L 587.377771 268.661581 
L 588.489876 268.55081 
L 588.720607 268.526697 
L 589.974869 268.415926 
L 590.201227 268.394827 
L 591.396439 268.284056 
L 591.630452 268.257682 
L 592.796139 268.146912 
L 593.02031 268.12732 
L 593.935582 268.016549 
L 594.169594 267.990175 
L 595.334188 267.879404 
L 595.56492 267.855291 
L 596.813714 267.74452 
L 597.04882 267.717393 
L 598.097501 267.606622 
L 598.335888 267.577234 
L 599.39113 267.466464 
L 599.614207 267.447625 
L 600.978914 267.336854 
L 601.203085 267.317262 
L 602.356743 267.206492 
L 602.586382 267.183132 
L 603.698487 267.072361 
L 603.92047 267.054276 
L 605.048978 266.943506 
L 605.281897 266.917885 
L 606.389628 266.807115 
L 606.619266 266.783755 
L 607.794795 266.672984 
L 608.016779 266.654899 
L 609.241516 266.544128 
L 609.46678 266.523783 
L 610.63028 266.413012 
L 610.844609 266.400202 
L 611.946873 266.289431 
L 612.181978 266.262304 
L 613.378284 266.151533 
L 613.61339 266.124406 
L 614.939824 266.013635 
L 615.17821 265.984247 
L 616.327495 265.873476 
L 616.55604 265.85087 
L 617.711885 265.740099 
L 617.76 265.738592 
L 617.76 265.738592 
" clip-path="url(#pbcfaf71966)" style="fill: none; stroke: #6b7280; stroke-width: 1.5; stroke-linecap: square"/>
   </g>
   <g id="line2d_30">
    <path d="M 71.002344 317.877656 
L 72.06196 317.766886 
L 72.297066 317.739758 
L 73.436509 317.628987 
L 73.661773 317.608642 
L 74.958682 317.497871 
L 75.183946 317.477526 
L 76.500539 317.366755 
L 76.725803 317.346409 
L 77.884929 317.235639 
L 78.113474 317.213032 
L 79.414757 317.102262 
L 79.642208 317.080409 
L 80.83742 316.969638 
L 81.056124 316.953814 
L 82.132143 316.843043 
L 82.354126 316.824958 
L 83.594173 316.714188 
L 83.82053 316.693089 
L 85.214762 316.582318 
L 85.448775 316.555944 
L 86.74459 316.445173 
L 86.968761 316.425581 
L 88.378302 316.314811 
L 88.597005 316.298986 
L 89.858922 316.188216 
L 90.085279 316.167116 
L 91.464202 316.056346 
L 91.685092 316.039014 
L 93.064015 315.928244 
L 93.289279 315.907898 
L 94.541354 315.797127 
L 94.763338 315.779042 
L 96.003384 315.668272 
L 96.228648 315.647926 
L 97.580233 315.537155 
L 97.812059 315.512289 
L 99.208478 315.401518 
L 99.431555 315.382679 
L 100.684723 315.271909 
L 100.914362 315.248549 
L 102.234235 315.137778 
L 102.461686 315.115926 
L 103.772811 315.005155 
L 103.99042 314.990084 
L 105.308106 314.879313 
L 105.528996 314.861982 
L 106.731863 314.751211 
L 106.957127 314.730866 
L 108.1928 314.620095 
L 108.426812 314.593721 
L 109.756526 314.48295 
L 109.981791 314.462605 
L 111.217463 314.351834 
L 111.443821 314.330735 
L 112.658716 314.219964 
L 112.877419 314.20414 
L 113.959999 314.093369 
L 114.177609 314.078299 
L 115.591524 313.967528 
L 115.822256 313.943415 
L 117.183682 313.832644 
L 117.402385 313.81682 
L 119.021882 313.706049 
L 119.256987 313.678921 
L 120.641378 313.568151 
L 120.855707 313.555341 
L 122.009366 313.44457 
L 122.229162 313.427992 
L 123.423281 313.317221 
L 123.647451 313.297629 
L 125.069021 313.186859 
L 125.300847 313.161992 
L 126.54308 313.051221 
L 126.772718 313.027861 
L 127.955902 312.917091 
L 128.172418 312.902773 
L 129.592894 312.792003 
L 129.826906 312.765629 
L 131.281282 312.654858 
L 131.506546 312.634512 
L 132.780491 312.523742 
L 133.003568 312.504903 
L 134.250176 312.394133 
L 134.466692 312.379815 
L 135.607228 312.269045 
L 135.828119 312.251713 
L 137.068165 312.140943 
L 137.285774 312.125872 
L 138.515979 312.015101 
L 138.732495 312.000784 
L 139.921146 311.890013 
L 140.149691 311.867407 
L 141.449881 311.756636 
L 141.680612 311.732523 
L 142.963306 311.621752 
L 143.183102 311.605174 
L 144.494227 311.494404 
L 144.72824 311.46803 
L 145.951883 311.357259 
L 146.178241 311.33616 
L 147.349396 311.225389 
L 147.558257 311.216347 
L 148.805958 311.105576 
L 149.033409 311.083723 
L 150.305168 310.972953 
L 150.527151 310.954868 
L 151.918103 310.844097 
L 152.153209 310.81697 
L 153.430434 310.706199 
L 153.654605 310.686607 
L 154.843256 310.575836 
L 155.06852 310.555491 
L 156.192654 310.44472 
L 156.422292 310.42136 
L 157.622972 310.31059 
L 157.846049 310.291751 
L 159.11234 310.18098 
L 159.346352 310.154606 
L 160.597334 310.043836 
L 160.823692 310.022737 
L 162.252916 309.911966 
L 162.472713 309.895388 
L 163.664644 309.784617 
L 163.885534 309.767286 
L 165.002014 309.656515 
L 165.230558 309.633909 
L 166.601826 309.523138 
L 166.82381 309.505053 
L 168.158992 309.394283 
L 168.386443 309.37243 
L 169.641799 309.261659 
L 169.876905 309.234532 
L 171.157411 309.123761 
L 171.373927 309.109444 
L 172.659901 308.998673 
L 172.884072 308.979081 
L 174.202851 308.868311 
L 174.424835 308.850226 
L 175.738147 308.739455 
L 175.95685 308.723631 
L 177.091919 308.61286 
L 177.308435 308.598543 
L 178.529891 308.487772 
L 178.755156 308.467426 
L 179.847577 308.356656 
L 180.064093 308.342338 
L 181.560022 308.231568 
L 181.78638 308.210469 
L 182.984873 308.099698 
L 183.221072 308.071817 
L 184.497205 307.961046 
L 184.720282 307.942208 
L 186.01391 307.831437 
L 186.238081 307.811845 
L 187.647622 307.701074 
L 187.869606 307.682989 
L 189.178544 307.572219 
L 189.402714 307.552627 
L 190.724774 307.441856 
L 190.943477 307.426032 
L 192.228358 307.315261 
L 192.44378 307.301697 
L 193.763653 307.190926 
L 193.981263 307.175856 
L 195.222403 307.065085 
L 195.453134 307.040972 
L 196.697555 306.930201 
L 196.9261 306.907595 
L 198.289713 306.796824 
L 198.510603 306.779493 
L 199.683945 306.668722 
L 199.910303 306.647623 
L 201.179874 306.536852 
L 201.395297 306.523288 
L 202.634249 306.412518 
L 202.859514 306.392172 
L 204.019733 306.281402 
L 204.249372 306.258042 
L 205.567058 306.147271 
L 205.785761 306.131447 
L 206.973318 306.020676 
L 207.190928 306.005605 
L 208.292098 305.894835 
L 208.514081 305.87675 
L 209.820832 305.765979 
L 210.046096 305.745633 
L 211.628413 305.634863 
L 211.844929 305.620545 
L 213.079508 305.509775 
L 213.310239 305.485661 
L 214.407035 305.374891 
L 214.6323 305.354545 
L 216.042934 305.243774 
L 216.261637 305.22795 
L 217.499497 305.117179 
L 217.728041 305.094573 
L 218.876232 304.983803 
L 219.104777 304.961196 
L 220.231098 304.850426 
L 220.451988 304.833094 
L 221.56628 304.722324 
L 221.781703 304.70876 
L 222.996598 304.597989 
L 223.233891 304.569355 
L 224.317565 304.458584 
L 224.536268 304.44276 
L 225.754444 304.331989 
L 225.981895 304.310136 
L 227.248186 304.199366 
L 227.472356 304.179773 
L 228.724431 304.069003 
L 228.95407 304.045643 
L 230.398603 303.934872 
L 230.62168 303.916034 
L 231.767684 303.805263 
L 231.987481 303.788685 
L 233.136766 303.677915 
L 233.36531 303.655308 
L 234.610824 303.544538 
L 234.826247 303.530974 
L 235.999589 303.420203 
L 236.228133 303.397597 
L 237.473647 303.286826 
L 237.697818 303.267234 
L 238.942238 303.156464 
L 239.166409 303.136872 
L 240.468786 303.026101 
L 240.69733 303.003495 
L 242.192166 302.892724 
L 242.420711 302.870118 
L 243.646541 302.759347 
L 243.86087 302.746537 
L 245.297749 302.635766 
L 245.519733 302.617681 
L 246.754312 302.506911 
L 246.979576 302.486565 
L 248.14417 302.375794 
L 248.354125 302.365998 
L 249.578862 302.255228 
L 249.803032 302.235636 
L 251.17102 302.124865 
L 251.390817 302.108287 
L 252.768646 301.997516 
L 253.002658 301.971142 
L 254.293006 301.860372 
L 254.519364 301.839273 
L 256.018574 301.728502 
L 256.241651 301.709663 
L 257.468575 301.598893 
L 257.686184 301.583822 
L 258.875929 301.473051 
L 259.1001 301.453459 
L 260.50308 301.342689 
L 260.72397 301.325357 
L 261.994635 301.214586 
L 262.215525 301.197255 
L 263.549613 301.086484 
L 263.771597 301.068399 
L 264.946033 300.957629 
L 265.170203 300.938037 
L 266.452897 300.827266 
L 266.695657 300.794864 
L 268.168622 300.684093 
L 268.393886 300.663747 
L 269.363834 300.552977 
L 269.59894 300.525849 
L 270.903504 300.415079 
L 271.121114 300.400008 
L 272.572208 300.289237 
L 272.79966 300.267384 
L 273.989404 300.156614 
L 274.20264 300.144557 
L 275.5247 300.033786 
L 275.753244 300.01118 
L 276.980169 299.90041 
L 277.198872 299.884585 
L 278.476098 299.773815 
L 278.698081 299.75573 
L 280.096687 299.644959 
L 280.311016 299.632149 
L 281.671349 299.521378 
L 281.89552 299.501786 
L 283.129005 299.391015 
L 283.350989 299.37293 
L 284.814112 299.26216 
L 285.038283 299.242568 
L 286.288171 299.131797 
L 286.518903 299.107684 
L 287.799409 298.996913 
L 288.02686 298.97506 
L 289.215511 298.86429 
L 289.436401 298.846958 
L 290.780332 298.736188 
L 291.012157 298.711321 
L 292.375771 298.60055 
L 292.601035 298.580204 
L 293.908879 298.469434 
L 294.146172 298.440799 
L 295.321701 298.330028 
L 295.541497 298.313451 
L 296.91714 298.20268 
L 297.154433 298.174045 
L 298.458996 298.063275 
L 298.678793 298.046697 
L 299.905717 297.935926 
L 300.130981 297.915581 
L 301.331661 297.80481 
L 301.550364 297.788985 
L 302.70949 297.678215 
L 302.93038 297.660883 
L 304.355231 297.550113 
L 304.56956 297.537303 
L 305.933173 297.426532 
L 306.162812 297.403172 
L 307.664208 297.292401 
L 307.885098 297.27507 
L 309.107648 297.164299 
L 309.336193 297.141693 
L 310.625448 297.030922 
L 310.851805 297.009823 
L 312.305087 296.899053 
L 312.529258 296.879461 
L 313.80211 296.76869 
L 314.030654 296.746084 
L 315.302413 296.635313 
L 315.523303 296.617982 
L 316.986426 296.507211 
L 317.21169 296.486865 
L 318.399248 296.376095 
L 318.620138 296.358763 
L 319.950946 296.247993 
L 320.17621 296.227647 
L 321.456717 296.116876 
L 321.681981 296.096531 
L 323.10027 295.98576 
L 323.325535 295.965414 
L 324.366561 295.854644 
L 324.591825 295.834298 
L 325.807814 295.723527 
L 326.04292 295.6964 
L 327.414188 295.585629 
L 327.641639 295.563777 
L 328.917772 295.453006 
L 329.150691 295.427385 
L 330.473844 295.316615 
L 330.700202 295.295516 
L 332.069283 295.184745 
L 332.293454 295.165153 
L 333.607859 295.054382 
L 333.838591 295.030269 
L 335.250319 294.919498 
L 335.47449 294.899906 
L 336.970419 294.789136 
L 337.193496 294.770297 
L 338.657713 294.659526 
L 338.881883 294.639934 
L 340.150361 294.529164 
L 340.375625 294.508818 
L 341.762203 294.398047 
L 341.98528 294.379209 
L 343.255945 294.268438 
L 343.484489 294.245832 
L 344.935584 294.135061 
L 345.149913 294.122251 
L 346.47088 294.01148 
L 346.698331 293.989628 
L 347.888075 293.878857 
L 348.115527 293.857004 
L 349.452896 293.746234 
L 349.675973 293.727395 
L 351.130348 293.616625 
L 351.352332 293.59854 
L 352.696262 293.487769 
L 352.912778 293.473452 
L 354.231558 293.362681 
L 354.464477 293.337061 
L 355.596265 293.22629 
L 355.823716 293.204437 
L 357.260595 293.093667 
L 357.495701 293.066539 
L 358.783862 292.955768 
L 359.014594 292.931655 
L 360.303848 292.820884 
L 360.525832 292.802799 
L 361.774626 292.692029 
L 362.000984 292.67093 
L 363.124024 292.560159 
L 363.350382 292.53906 
L 364.733679 292.428289 
L 364.973159 292.398147 
L 366.519389 292.287377 
L 366.747934 292.264771 
L 367.981419 292.154 
L 368.209964 292.131394 
L 369.480629 292.020623 
L 369.70808 291.99877 
L 371.28821 291.888 
L 371.503632 291.874436 
L 372.820225 291.763665 
L 373.035647 291.750102 
L 374.366455 291.639331 
L 374.604842 291.609943 
L 376.191532 291.499172 
L 376.411329 291.482594 
L 377.794626 291.371824 
L 378.025357 291.34771 
L 379.387878 291.23694 
L 379.614235 291.21584 
L 381.270911 291.10507 
L 381.506017 291.077942 
L 382.773401 290.967172 
L 382.994291 290.94984 
L 384.585356 290.839069 
L 384.819368 290.812696 
L 386.117371 290.701925 
L 386.342635 290.681579 
L 387.462395 290.570809 
L 387.682191 290.554231 
L 388.978007 290.44346 
L 389.19999 290.425375 
L 390.422541 290.314604 
L 390.645618 290.295766 
L 391.834269 290.184995 
L 392.063907 290.161635 
L 393.522657 290.050865 
L 393.750108 290.029012 
L 395.131218 289.918241 
L 395.355388 289.898649 
L 396.673074 289.787879 
L 396.893964 289.770547 
L 398.438008 289.659777 
L 398.661085 289.640938 
L 399.868326 289.530167 
L 400.106712 289.500779 
L 401.401434 289.390009 
L 401.627792 289.368909 
L 403.054829 289.258139 
L 403.282281 289.236286 
L 404.399853 289.125515 
L 404.613089 289.113459 
L 405.840013 289.002688 
L 406.061997 288.984603 
L 407.443106 288.873832 
L 407.678212 288.846705 
L 409.094315 288.735934 
L 409.315205 288.718603 
L 410.604459 288.607832 
L 410.830817 288.586733 
L 412.121165 288.475962 
L 412.345336 288.45637 
L 413.705669 288.3456 
L 413.929839 288.326008 
L 415.31751 288.215237 
L 415.539494 288.197152 
L 416.727051 288.086381 
L 416.950129 288.067543 
L 418.412159 287.956772 
L 418.63961 287.934919 
L 420.1421 287.824149 
L 420.367364 287.803803 
L 421.749567 287.693032 
L 421.974831 287.672687 
L 423.331884 287.561916 
L 423.553868 287.543831 
L 424.945913 287.433061 
L 425.167896 287.414976 
L 426.255944 287.304205 
L 426.476834 287.286873 
L 427.812016 287.176103 
L 428.036187 287.156511 
L 429.534303 287.04574 
L 429.767222 287.02012 
L 431.033512 286.909349 
L 431.262057 286.886743 
L 432.555686 286.775972 
L 432.778763 286.757134 
L 434.077859 286.646363 
L 434.310778 286.620743 
L 435.578162 286.509972 
L 435.806707 286.487366 
L 437.092681 286.376595 
L 437.317945 286.356249 
L 438.420208 286.245479 
L 438.648753 286.222872 
L 439.900828 286.112102 
L 440.128279 286.090249 
L 441.444872 285.979478 
L 441.665762 285.962147 
L 442.846758 285.851376 
L 443.067648 285.834045 
L 444.347061 285.723274 
L 444.562484 285.70971 
L 445.865954 285.59894 
L 446.098873 285.573319 
L 447.569651 285.462549 
L 447.789447 285.445971 
L 448.991221 285.3352 
L 449.213204 285.317115 
L 450.631494 285.206345 
L 450.855664 285.186752 
L 452.174444 285.075982 
L 452.39424 285.059404 
L 453.656157 284.948633 
L 453.892356 284.920752 
L 455.055857 284.809982 
L 455.288775 284.784361 
L 456.511326 284.673591 
L 456.73659 284.653245 
L 458.034592 284.542474 
L 458.26095 284.521375 
L 459.631125 284.410604 
L 459.854202 284.391766 
L 461.095342 284.280995 
L 461.323886 284.258389 
L 462.685313 284.147618 
L 462.902923 284.132547 
L 464.198738 284.021777 
L 464.431657 283.996156 
L 465.486899 283.885386 
L 465.71107 283.865794 
L 467.060468 283.755023 
L 467.278077 283.739952 
L 468.661374 283.629182 
L 468.888825 283.607329 
L 470.132152 283.496558 
L 470.346481 283.483748 
L 471.625894 283.372977 
L 471.847878 283.354892 
L 473.131665 283.244122 
L 473.356929 283.223776 
L 474.609004 283.113005 
L 474.832081 283.094167 
L 476.052444 282.983396 
L 476.274428 282.965311 
L 477.537438 282.854541 
L 477.757235 282.837963 
L 479.147093 282.727192 
L 479.37345 282.706093 
L 480.852976 282.595322 
L 481.073866 282.577991 
L 482.608068 282.46722 
L 482.826772 282.451396 
L 484.126961 282.340625 
L 484.362067 282.313498 
L 485.603207 282.202727 
L 485.828471 282.182381 
L 487.298156 282.071611 
L 487.524513 282.050512 
L 488.899062 281.939741 
L 489.109017 281.929945 
L 490.382962 281.819174 
L 490.608226 281.798829 
L 491.897481 281.688058 
L 492.122745 281.667712 
L 493.424028 281.556942 
L 493.642731 281.541117 
L 494.888245 281.430347 
L 495.108042 281.413769 
L 496.484778 281.302998 
L 496.711135 281.281899 
L 498.080217 281.171128 
L 498.305481 281.150783 
L 499.509441 281.040012 
L 499.733612 281.02042 
L 501.052391 280.909649 
L 501.268907 280.895332 
L 502.416005 280.784561 
L 502.634708 280.768737 
L 503.96989 280.657966 
L 504.186406 280.643649 
L 505.507373 280.532878 
L 505.722795 280.519315 
L 506.91254 280.408544 
L 507.138897 280.387445 
L 508.37785 280.276674 
L 508.600927 280.257836 
L 509.890182 280.147065 
L 510.117633 280.125212 
L 511.428758 280.014442 
L 511.649648 279.99711 
L 512.890788 279.886339 
L 513.12152 279.862226 
L 514.528874 279.751455 
L 514.755232 279.730356 
L 516.029177 279.619586 
L 516.242412 279.607529 
L 517.541509 279.496758 
L 517.779895 279.46737 
L 519.238644 279.3566 
L 519.465002 279.3355 
L 520.906255 279.22473 
L 521.132613 279.203631 
L 522.429522 279.09286 
L 522.661347 279.067993 
L 523.944041 278.957222 
L 524.164931 278.939891 
L 525.417006 278.82912 
L 525.634615 278.814049 
L 526.759843 278.703279 
L 526.987294 278.681426 
L 528.365123 278.570655 
L 528.589294 278.551063 
L 529.715615 278.440293 
L 529.936505 278.422961 
L 531.235601 278.312191 
L 531.459772 278.292599 
L 532.939298 278.181828 
L 533.163468 278.162236 
L 534.627685 278.051465 
L 534.862791 278.024338 
L 536.241714 277.913567 
L 536.457137 277.900003 
L 537.734362 277.789233 
L 537.955252 277.771901 
L 539.340736 277.661131 
L 539.559439 277.645306 
L 540.855255 277.534536 
L 541.08708 277.509669 
L 542.40586 277.398898 
L 542.631124 277.378552 
L 544.035198 277.267782 
L 544.256088 277.25045 
L 545.60986 277.13968 
L 545.83075 277.122348 
L 547.058767 277.011578 
L 547.277471 276.995753 
L 548.690292 276.884982 
L 548.907902 276.869912 
L 550.296666 276.759141 
L 550.517556 276.74181 
L 551.766351 276.631039 
L 551.985054 276.615215 
L 553.465674 276.504444 
L 553.687657 276.486359 
L 555.122349 276.375588 
L 555.355268 276.349968 
L 556.470654 276.239197 
L 556.692637 276.221112 
L 558.033287 276.110342 
L 558.259645 276.089242 
L 559.69215 275.978472 
L 559.916321 275.95888 
L 561.167302 275.848109 
L 561.387099 275.831531 
L 562.691662 275.72076 
L 562.924581 275.69514 
L 564.275073 275.584369 
L 564.506898 275.559502 
L 565.881447 275.448732 
L 566.109991 275.426126 
L 567.379563 275.315355 
L 567.603733 275.295763 
L 568.821909 275.184992 
L 569.042799 275.167661 
L 570.257695 275.05689 
L 570.481865 275.037298 
L 571.909996 274.926527 
L 572.127606 274.911457 
L 573.31407 274.800686 
L 573.528399 274.787876 
L 574.683151 274.677105 
L 574.910602 274.655252 
L 576.308115 274.544482 
L 576.542127 274.518108 
L 577.822634 274.407337 
L 578.035869 274.39528 
L 579.454159 274.28451 
L 579.670675 274.270192 
L 580.994922 274.159422 
L 581.223466 274.136816 
L 582.669094 274.026045 
L 582.892171 274.007206 
L 584.203296 273.896436 
L 584.415438 273.885133 
L 585.695944 273.774362 
L 585.920115 273.75477 
L 587.227959 273.643999 
L 587.447756 273.627421 
L 588.815743 273.516651 
L 589.050849 273.489523 
L 590.45711 273.378753 
L 590.684561 273.3569 
L 591.866651 273.246129 
L 592.089728 273.227291 
L 593.369141 273.11652 
L 593.592218 273.097681 
L 595.049874 272.986911 
L 595.283886 272.960537 
L 596.551271 272.849766 
L 596.784189 272.824146 
L 598.106249 272.713375 
L 598.3337 272.691522 
L 599.587963 272.580752 
L 599.812133 272.56116 
L 601.068582 272.450389 
L 601.289472 272.433058 
L 602.562324 272.322287 
L 602.788682 272.301188 
L 604.146828 272.190417 
L 604.369905 272.171579 
L 605.730238 272.060808 
L 605.959876 272.037448 
L 607.40441 271.926677 
L 607.628581 271.907085 
L 608.940799 271.796315 
L 609.160596 271.779737 
L 610.497965 271.668966 
L 610.717761 271.652388 
L 612.139331 271.541618 
L 612.370063 271.517504 
L 613.603548 271.406734 
L 613.822251 271.390909 
L 615.213203 271.280139 
L 615.441748 271.257532 
L 616.788958 271.146762 
L 617.010942 271.128677 
L 617.76 271.072161 
L 617.76 271.072161 
" clip-path="url(#pbcfaf71966)" style="fill: none; stroke: #dc2626; stroke-width: 1.5; stroke-linecap: square"/>
   </g>
   <g id="patch_3">
    <path d="M 71.002344 317.877656 
L 71.002344 26.16 
" style="fill: none; stroke: #000000; stroke-width: 0.8; stroke-linejoin: miter; stroke-linecap: square"/>
   </g>
   <g id="patch_4">
    <path d="M 617.76 317.877656 
L 617.76 26.16 
" style="fill: none; stroke: #000000; stroke-width: 0.8; stroke-linejoin: miter; stroke-linecap: square"/>
   </g>
   <g id="patch_5">
    <path d="M 71.002344 317.877656 
L 617.76 317.877656 
" style="fill: none; stroke: #000000; stroke-width: 0.8; stroke-linejoin: miter; stroke-linecap: square"/>
   </g>
   <g id="patch_6">
    <path d="M 71.002344 26.16 
L 617.76 26.16 
" style="fill: none; stroke: #000000; stroke-width: 0.8; stroke-linejoin: miter; stroke-linecap: square"/>
   </g>
   <g id="text_22">
    <text style="font-size: 12px; font-family: 'DejaVu Sans', 'Bitstream Vera Sans', 'Computer Modern Sans Serif', 'Lucida Grande', 'Verdana', 'Geneva', 'Lucid', 'Arial', 'Helvetica', 'Avant Garde', sans-serif; text-anchor: middle" x="344.381172" y="20.16" transform="rotate(-0 344.381172 20.16)">J1 (Aprendiz) vs J2 (Ingenuo)</text>
   </g>
   <g id="legend_1">
    <g id="patch_7">
     <path d="M 78.002344 79.162344 
L 174.241406 79.162344 
Q 176.241406 79.162344 176.241406 77.162344 
L 176.241406 33.16 
Q 176.241406 31.16 174.241406 31.16 
L 78.002344 31.16 
Q 76.002344 31.16 76.002344 33.16 
L 76.002344 77.162344 
Q 76.002344 79.162344 78.002344 79.162344 
z
" style="fill: #ffffff; opacity: 0.8; stroke: #cccccc; stroke-linejoin: miter"/>
    </g>
    <g id="line2d_31">
     <path d="M 80.002344 39.258438 
L 90.002344 39.258438 
L 100.002344 39.258438 
" style="fill: none; stroke: #2563eb; stroke-width: 1.5; stroke-linecap: square"/>
    </g>
    <g id="text_23">
     <text style="font-size: 10px; font-family: 'DejaVu Sans', 'Bitstream Vera Sans', 'Computer Modern Sans Serif', 'Lucida Grande', 'Verdana', 'Geneva', 'Lucid', 'Arial', 'Helvetica', 'Avant Garde', sans-serif; text-anchor: start" x="108.002344" y="42.758438" transform="rotate(-0 108.002344 42.758438)">J1 (Aprendiz)</text>
    </g>
    <g id="line2d_32">
     <path d="M 80.002344 54.259219 
L 90.002344 54.259219 
L 100.002344 54.259219 
" style="fill: none; stroke: #6b7280; stroke-width: 1.5; stroke-linecap: square"/>
    </g>
    <g id="text_24">
     <text style="font-size: 10px; font-family: 'DejaVu Sans', 'Bitstream Vera Sans', 'Computer Modern Sans Serif', 'Lucida Grande', 'Verdana', 'Geneva', 'Lucid', 'Arial', 'Helvetica', 'Avant Garde', sans-serif; text-anchor: start" x="108.002344" y="57.759219" transform="rotate(-0 108.002344 57.759219)">V</text>
    </g>
    <g id="line2d_33">
     <path d="M 80.002344 69.26 
L 90.002344 69.26 
L 100.002344 69.26 
" style="fill: none; stroke: #dc2626; stroke-width: 1.5; stroke-linecap: square"/>
    </g>
    <g id="text_25">
     <text style="font-size: 10px; font-family: 'DejaVu Sans', 'Bitstream Vera Sans', 'Computer Modern Sans Serif', 'Lucida Grande', 'Verdana', 'Geneva', 'Lucid', 'Arial', 'Helvetica', 'Avant Garde', sans-serif; text-anchor: start" x="108.002344" y="72.76" transform="rotate(-0 108.002344 72.76)">J2 (Ingenuo)</text>
    </g>
   </g>
  </g>
 </g>
 <defs>
  <clipPath id="pbcfaf71966">
   <rect x="71.002344" y="26.16" width="546.757656" height="291.717656"/>
  </clipPath>
 </defs>
</svg>
